<?xml version="1.0" encoding="utf-8" standalone="no"?>
<!DOCTYPE svg PUBLIC "-//W3C//DTD SVG 1.1//EN"
  "http://www.w3.org/Graphics/SVG/1.1/DTD/svg11.dtd">
<svg height="288pt" version="1.1" viewBox="0 0 144 288" width="144pt" xmlns="http://www.w3.org/2000/svg" xmlns:xlink="http://www.w3.org/1999/xlink">
 <metadata>
  <rdf:RDF xmlns:cc="http://creativecommons.org/ns#" xmlns:dc="http://purl.org/dc/elements/1.1/" xmlns:rdf="http://www.w3.org/1999/02/22-rdf-syntax-ns#">
   <cc:Work>
    <dc:type rdf:resource="http://purl.org/dc/dcmitype/StillImage"/>
    <dc:date>2025-03-13T09:32:05.326129</dc:date>
    <dc:format>image/svg+xml</dc:format>
    <dc:creator>
     <cc:Agent>
      <dc:title>Matplotlib v3.4.3, https://matplotlib.org/</dc:title>
     </cc:Agent>
    </dc:creator>
   </cc:Work>
  </rdf:RDF>
 </metadata>
 <defs>
  <style type="text/css">*{stroke-linecap:butt;stroke-linejoin:round;}</style>
 </defs>
 <g id="figure_1">
  <g id="patch_1">
   <path d="M 0 288 
L 144 288 
L 144 0 
L 0 0 
z
" style="fill:none;"/>
  </g>
  <g id="axes_1">
   <g id="patch_2">
    <path d="M 18 252 
L 107.28 252 
L 107.28 34.56 
L 18 34.56 
z
" style="fill:#ffffff;"/>
   </g>
   <g id="PathCollection_1">
    <path clip-path="url(#pb1fda75bc2)" d="M 21.87 38.9088 
L 21.87 41.0832 
L 21.87 43.2576 
L 21.87 45.432 
L 21.87 47.6064 
L 21.87 49.7808 
L 21.87 51.9552 
L 21.87 54.1296 
L 21.87 56.304 
L 21.87 58.4784 
L 21.87 60.6528 
L 21.87 62.8272 
L 21.87 65.0016 
L 21.87 67.176 
L 21.87 69.3504 
L 21.87 70.366914 
L 22.393618 69.3504 
L 22.6854 68.840877 
L 23.5008 67.361764 
L 23.598894 67.176 
L 24.3162 65.957413 
L 24.858099 65.0016 
L 25.1316 64.567971 
L 25.947 63.226953 
L 26.180148 62.8272 
L 26.7624 61.93223 
L 27.568518 60.6528 
L 27.5778 60.63955 
L 28.3932 59.426404 
L 29.010886 58.4784 
L 29.2086 58.206107 
L 30.024 57.039936 
L 30.520928 56.304 
L 30.8394 55.881739 
L 31.6548 54.762408 
L 32.098764 54.1296 
L 32.4702 53.656663 
L 33.2856 52.583513 
L 33.74511 51.9552 
L 34.101 51.52138 
L 34.9164 50.493047 
L 35.461752 49.7808 
L 35.7318 49.466862 
L 36.5472 48.480944 
L 37.252595 47.6064 
L 37.3626 47.485041 
L 38.178 46.537375 
L 38.9934 45.578052 
L 39.107623 45.432 
L 39.8088 44.653069 
L 40.6242 43.736314 
L 41.021363 43.2576 
L 41.4396 42.820606 
L 42.255 41.940707 
L 43.027493 41.0832 
L 43.0704 41.041419 
L 43.8858 40.180439 
L 44.7012 39.335987 
L 45.054299 38.9088 
L 45.5166 38.446619 
L 46.332 37.658142 
L 47.1474 36.873683 
L 47.237473 36.7344 
L 47.1474 36.7344 
L 46.332 36.7344 
L 45.5166 36.7344 
L 44.7012 36.7344 
L 43.8858 36.7344 
L 43.0704 36.7344 
L 42.255 36.7344 
L 41.4396 36.7344 
L 40.6242 36.7344 
L 39.8088 36.7344 
L 38.9934 36.7344 
L 38.178 36.7344 
L 37.3626 36.7344 
L 36.5472 36.7344 
L 35.7318 36.7344 
L 34.9164 36.7344 
L 34.101 36.7344 
L 33.2856 36.7344 
L 32.4702 36.7344 
L 31.6548 36.7344 
L 30.8394 36.7344 
L 30.024 36.7344 
L 29.2086 36.7344 
L 28.3932 36.7344 
L 27.5778 36.7344 
L 26.7624 36.7344 
L 25.947 36.7344 
L 25.1316 36.7344 
L 24.3162 36.7344 
L 23.5008 36.7344 
L 22.6854 36.7344 
L 21.87 36.7344 
z
" style="fill:#124984;"/>
    <path clip-path="url(#pb1fda75bc2)" d="M 21.87 160.6752 
L 21.87 162.8496 
L 21.87 165.024 
L 21.87 167.1984 
L 21.87 169.3728 
L 21.87 171.5472 
L 21.87 173.7216 
L 21.87 175.896 
L 21.87 178.0704 
L 21.87 180.2448 
L 21.87 182.4192 
L 21.87 184.5936 
L 21.87 186.768 
L 21.87 188.9424 
L 21.87 191.1168 
L 21.87 193.2912 
L 21.87 195.4656 
L 21.87 197.64 
L 21.87 199.8144 
L 21.87 201.9888 
L 21.87 204.1632 
L 21.87 206.3376 
L 21.87 208.512 
L 21.87 210.6864 
L 21.87 212.8608 
L 21.87 215.0352 
L 21.87 217.2096 
L 21.87 219.384 
L 21.87 221.5584 
L 21.87 223.7328 
L 21.87 225.9072 
L 21.87 228.0816 
L 21.87 230.256 
L 21.87 232.4304 
L 21.87 234.6048 
L 21.87 236.7792 
L 21.87 238.9536 
L 21.87 241.128 
L 21.87 243.3024 
L 21.87 245.4768 
L 21.87 247.6512 
L 21.87 249.8256 
L 21.87 252 
L 22.6854 252 
L 23.5008 252 
L 24.3162 252 
L 25.1316 252 
L 25.947 252 
L 26.7624 252 
L 27.5778 252 
L 28.3932 252 
L 29.2086 252 
L 30.024 252 
L 30.8394 252 
L 31.6548 252 
L 32.4702 252 
L 33.2856 252 
L 34.101 252 
L 34.9164 252 
L 35.7318 252 
L 36.5472 252 
L 37.3626 252 
L 38.178 252 
L 38.9934 252 
L 39.8088 252 
L 40.6242 252 
L 41.4396 252 
L 42.255 252 
L 43.0704 252 
L 43.8858 252 
L 44.7012 252 
L 45.5166 252 
L 46.332 252 
L 47.1474 252 
L 47.9628 252 
L 48.7782 252 
L 49.5936 252 
L 50.409 252 
L 51.2244 252 
L 52.0398 252 
L 52.8552 252 
L 53.6706 252 
L 54.486 252 
L 55.3014 252 
L 56.1168 252 
L 56.9322 252 
L 57.7476 252 
L 58.563 252 
L 59.3784 252 
L 60.1938 252 
L 61.0092 252 
L 61.8246 252 
L 62.64 252 
L 63.4554 252 
L 64.2708 252 
L 65.0862 252 
L 65.9016 252 
L 66.717 252 
L 67.5324 252 
L 68.3478 252 
L 69.1632 252 
L 69.9786 252 
L 70.794 252 
L 71.6094 252 
L 72.4248 252 
L 73.2402 252 
L 74.0556 252 
L 74.871 252 
L 75.6864 252 
L 76.5018 252 
L 77.3172 252 
L 78.1326 252 
L 78.948 252 
L 79.7634 252 
L 80.5788 252 
L 81.3942 252 
L 82.2096 252 
L 83.025 252 
L 83.8404 252 
L 84.6558 252 
L 85.4712 252 
L 86.2866 252 
L 87.102 252 
L 87.9174 252 
L 88.7328 252 
L 89.5482 252 
L 90.3636 252 
L 91.179 252 
L 91.9944 252 
L 92.8098 252 
L 93.6252 252 
L 94.4406 252 
L 95.256 252 
L 96.0714 252 
L 96.8868 252 
L 97.7022 252 
L 98.5176 252 
L 99.333 252 
L 100.1484 252 
L 100.9638 252 
L 101.7792 252 
L 102.5946 252 
L 103.41 252 
L 103.41 249.8256 
L 103.41 247.6512 
L 103.41 245.4768 
L 103.41 243.3024 
L 103.41 241.128 
L 103.41 238.9536 
L 103.41 236.7792 
L 103.41 234.6048 
L 103.41 232.4304 
L 103.41 230.256 
L 103.41 228.0816 
L 103.41 225.9072 
L 103.41 223.7328 
L 103.41 221.5584 
L 103.41 219.384 
L 103.41 217.2096 
L 103.41 215.0352 
L 103.41 212.8608 
L 103.41 210.6864 
L 103.41 208.512 
L 103.41 206.3376 
L 103.41 204.1632 
L 103.41 201.9888 
L 103.41 199.8144 
L 103.41 197.64 
L 103.41 195.4656 
L 103.41 193.2912 
L 103.41 191.1168 
L 103.41 188.9424 
L 103.41 186.768 
L 103.41 184.5936 
L 103.41 182.4192 
L 103.41 180.2448 
L 103.41 178.0704 
L 103.41 175.896 
L 103.41 173.7216 
L 103.41 171.5472 
L 103.41 169.3728 
L 103.41 167.1984 
L 103.41 165.024 
L 103.41 162.8496 
L 103.41 160.6752 
L 103.41 160.431467 
L 103.233185 160.6752 
L 102.5946 161.544936 
L 101.7792 162.602908 
L 101.581889 162.8496 
L 100.9638 163.6165 
L 100.1484 164.582513 
L 99.760193 165.024 
L 99.333 165.507982 
L 98.5176 166.395143 
L 97.742702 167.1984 
L 97.7022 167.240366 
L 96.8868 168.058898 
L 96.0714 168.839143 
L 95.48895 169.3728 
L 95.256 169.586987 
L 94.4406 170.310248 
L 93.6252 171.000335 
L 92.949496 171.5472 
L 92.8098 171.661047 
L 91.9944 172.302675 
L 91.179 172.91512 
L 90.3636 173.499545 
L 90.04118 173.7216 
L 89.5482 174.06477 
L 88.7328 174.60897 
L 87.9174 175.128077 
L 87.102 175.622992 
L 86.631978 175.896 
L 86.2866 176.099418 
L 85.4712 176.559636 
L 84.6558 176.997812 
L 83.8404 177.414644 
L 83.025 177.810795 
L 82.463587 178.0704 
L 82.2096 178.189891 
L 81.3942 178.555827 
L 80.5788 178.902523 
L 79.7634 179.23049 
L 78.948 179.54021 
L 78.1326 179.832133 
L 77.3172 180.106683 
L 76.88111 180.2448 
L 76.5018 180.367492 
L 75.6864 180.615047 
L 74.871 180.845969 
L 74.0556 181.060573 
L 73.2402 181.259151 
L 72.4248 181.441971 
L 71.6094 181.60928 
L 70.794 181.761303 
L 69.9786 181.898242 
L 69.1632 182.020283 
L 68.3478 182.127587 
L 67.5324 182.220297 
L 66.717 182.298537 
L 65.9016 182.362411 
L 65.0862 182.412003 
L 64.920409 182.4192 
L 64.2708 182.448174 
L 63.4554 182.469981 
L 62.64 182.477247 
L 61.8246 182.469981 
L 61.0092 182.448174 
L 60.359591 182.4192 
L 60.1938 182.412003 
L 59.3784 182.362411 
L 58.563 182.298537 
L 57.7476 182.220297 
L 56.9322 182.127587 
L 56.1168 182.020283 
L 55.3014 181.898242 
L 54.486 181.761303 
L 53.6706 181.60928 
L 52.8552 181.441971 
L 52.0398 181.259151 
L 51.2244 181.060573 
L 50.409 180.845969 
L 49.5936 180.615047 
L 48.7782 180.367492 
L 48.39889 180.2448 
L 47.9628 180.106683 
L 47.1474 179.832133 
L 46.332 179.54021 
L 45.5166 179.23049 
L 44.7012 178.902523 
L 43.8858 178.555827 
L 43.0704 178.189891 
L 42.816413 178.0704 
L 42.255 177.810795 
L 41.4396 177.414644 
L 40.6242 176.997812 
L 39.8088 176.559636 
L 38.9934 176.099418 
L 38.648022 175.896 
L 38.178 175.622992 
L 37.3626 175.128077 
L 36.5472 174.60897 
L 35.7318 174.06477 
L 35.23882 173.7216 
L 34.9164 173.499545 
L 34.101 172.91512 
L 33.2856 172.302675 
L 32.4702 171.661047 
L 32.330504 171.5472 
L 31.6548 171.000335 
L 30.8394 170.310248 
L 30.024 169.586987 
L 29.79105 169.3728 
L 29.2086 168.839143 
L 28.3932 168.058898 
L 27.5778 167.240366 
L 27.537298 167.1984 
L 26.7624 166.395143 
L 25.947 165.507982 
L 25.519807 165.024 
L 25.1316 164.582513 
L 24.3162 163.6165 
L 23.698111 162.8496 
L 23.5008 162.602908 
L 22.6854 161.544936 
L 22.046815 160.6752 
L 21.87 160.431467 
z
" style="fill:#124984;"/>
    <path clip-path="url(#pb1fda75bc2)" d="M 78.1326 36.873683 
L 78.948 37.658142 
L 79.7634 38.446619 
L 80.225701 38.9088 
L 80.5788 39.335987 
L 81.3942 40.180439 
L 82.2096 41.041419 
L 82.252507 41.0832 
L 83.025 41.940707 
L 83.8404 42.820606 
L 84.258637 43.2576 
L 84.6558 43.736314 
L 85.4712 44.653069 
L 86.172377 45.432 
L 86.2866 45.578052 
L 87.102 46.537375 
L 87.9174 47.485041 
L 88.027405 47.6064 
L 88.7328 48.480944 
L 89.5482 49.466862 
L 89.818248 49.7808 
L 90.3636 50.493047 
L 91.179 51.52138 
L 91.53489 51.9552 
L 91.9944 52.583513 
L 92.8098 53.656663 
L 93.181236 54.1296 
L 93.6252 54.762408 
L 94.4406 55.881739 
L 94.759072 56.304 
L 95.256 57.039936 
L 96.0714 58.206107 
L 96.269114 58.4784 
L 96.8868 59.426404 
L 97.7022 60.63955 
L 97.711482 60.6528 
L 98.5176 61.93223 
L 99.099852 62.8272 
L 99.333 63.226953 
L 100.1484 64.567971 
L 100.421901 65.0016 
L 100.9638 65.957413 
L 101.681106 67.176 
L 101.7792 67.361764 
L 102.5946 68.840877 
L 102.886382 69.3504 
L 103.41 70.366914 
L 103.41 69.3504 
L 103.41 67.176 
L 103.41 65.0016 
L 103.41 62.8272 
L 103.41 60.6528 
L 103.41 58.4784 
L 103.41 56.304 
L 103.41 54.1296 
L 103.41 51.9552 
L 103.41 49.7808 
L 103.41 47.6064 
L 103.41 45.432 
L 103.41 43.2576 
L 103.41 41.0832 
L 103.41 38.9088 
L 103.41 36.7344 
L 102.5946 36.7344 
L 101.7792 36.7344 
L 100.9638 36.7344 
L 100.1484 36.7344 
L 99.333 36.7344 
L 98.5176 36.7344 
L 97.7022 36.7344 
L 96.8868 36.7344 
L 96.0714 36.7344 
L 95.256 36.7344 
L 94.4406 36.7344 
L 93.6252 36.7344 
L 92.8098 36.7344 
L 91.9944 36.7344 
L 91.179 36.7344 
L 90.3636 36.7344 
L 89.5482 36.7344 
L 88.7328 36.7344 
L 87.9174 36.7344 
L 87.102 36.7344 
L 86.2866 36.7344 
L 85.4712 36.7344 
L 84.6558 36.7344 
L 83.8404 36.7344 
L 83.025 36.7344 
L 82.2096 36.7344 
L 81.3942 36.7344 
L 80.5788 36.7344 
L 79.7634 36.7344 
L 78.948 36.7344 
L 78.1326 36.7344 
L 78.042527 36.7344 
z
" style="fill:#124984;"/>
   </g>
   <g id="PathCollection_2">
    <path clip-path="url(#pb1fda75bc2)" d="M 22.393618 69.3504 
L 21.87 70.366914 
L 21.87 71.5248 
L 21.87 73.6992 
L 21.87 75.8736 
L 21.87 78.048 
L 21.87 80.2224 
L 21.87 82.3968 
L 21.87 84.5712 
L 21.87 86.7456 
L 21.87 88.92 
L 21.87 91.0944 
L 21.87 93.2688 
L 21.87 95.4432 
L 21.87 97.6176 
L 21.87 99.792 
L 21.87 101.9664 
L 21.87 104.1408 
L 21.87 106.3152 
L 21.87 108.4896 
L 21.87 110.664 
L 21.87 112.8384 
L 21.87 115.0128 
L 21.87 117.1872 
L 21.87 119.3616 
L 21.87 121.536 
L 21.87 123.7104 
L 21.87 125.8848 
L 21.87 128.0592 
L 21.87 130.2336 
L 21.87 132.408 
L 21.87 134.5824 
L 21.87 136.7568 
L 21.87 138.9312 
L 21.87 141.1056 
L 21.87 143.28 
L 21.87 145.4544 
L 21.87 147.6288 
L 21.87 149.8032 
L 21.87 151.9776 
L 21.87 154.152 
L 21.87 156.3264 
L 21.87 158.5008 
L 21.87 160.431467 
L 22.046815 160.6752 
L 22.6854 161.544936 
L 23.5008 162.602908 
L 23.698111 162.8496 
L 24.3162 163.6165 
L 25.1316 164.582513 
L 25.519807 165.024 
L 25.947 165.507982 
L 26.7624 166.395143 
L 27.537298 167.1984 
L 27.5778 167.240366 
L 28.3932 168.058898 
L 29.2086 168.839143 
L 29.79105 169.3728 
L 30.024 169.586987 
L 30.8394 170.310248 
L 31.6548 171.000335 
L 32.330504 171.5472 
L 32.4702 171.661047 
L 33.2856 172.302675 
L 34.101 172.91512 
L 34.9164 173.499545 
L 35.23882 173.7216 
L 35.7318 174.06477 
L 36.5472 174.60897 
L 37.3626 175.128077 
L 38.178 175.622992 
L 38.648022 175.896 
L 38.9934 176.099418 
L 39.8088 176.559636 
L 40.6242 176.997812 
L 41.4396 177.414644 
L 42.255 177.810795 
L 42.816413 178.0704 
L 43.0704 178.189891 
L 43.8858 178.555827 
L 44.7012 178.902523 
L 45.5166 179.23049 
L 46.332 179.54021 
L 47.1474 179.832133 
L 47.9628 180.106683 
L 48.39889 180.2448 
L 48.7782 180.367492 
L 49.5936 180.615047 
L 50.409 180.845969 
L 51.2244 181.060573 
L 52.0398 181.259151 
L 52.8552 181.441971 
L 53.6706 181.60928 
L 54.486 181.761303 
L 55.3014 181.898242 
L 56.1168 182.020283 
L 56.9322 182.127587 
L 57.7476 182.220297 
L 58.563 182.298537 
L 59.3784 182.362411 
L 60.1938 182.412003 
L 60.359591 182.4192 
L 61.0092 182.448174 
L 61.8246 182.469981 
L 62.64 182.477247 
L 63.4554 182.469981 
L 64.2708 182.448174 
L 64.920409 182.4192 
L 65.0862 182.412003 
L 65.9016 182.362411 
L 66.717 182.298537 
L 67.5324 182.220297 
L 68.3478 182.127587 
L 69.1632 182.020283 
L 69.9786 181.898242 
L 70.794 181.761303 
L 71.6094 181.60928 
L 72.4248 181.441971 
L 73.2402 181.259151 
L 74.0556 181.060573 
L 74.871 180.845969 
L 75.6864 180.615047 
L 76.5018 180.367492 
L 76.88111 180.2448 
L 77.3172 180.106683 
L 78.1326 179.832133 
L 78.948 179.54021 
L 79.7634 179.23049 
L 80.5788 178.902523 
L 81.3942 178.555827 
L 82.2096 178.189891 
L 82.463587 178.0704 
L 83.025 177.810795 
L 83.8404 177.414644 
L 84.6558 176.997812 
L 85.4712 176.559636 
L 86.2866 176.099418 
L 86.631978 175.896 
L 87.102 175.622992 
L 87.9174 175.128077 
L 88.7328 174.60897 
L 89.5482 174.06477 
L 90.04118 173.7216 
L 90.3636 173.499545 
L 91.179 172.91512 
L 91.9944 172.302675 
L 92.8098 171.661047 
L 92.949496 171.5472 
L 93.6252 171.000335 
L 94.4406 170.310248 
L 95.256 169.586987 
L 95.48895 169.3728 
L 96.0714 168.839143 
L 96.8868 168.058898 
L 97.7022 167.240366 
L 97.742702 167.1984 
L 98.5176 166.395143 
L 99.333 165.507982 
L 99.760193 165.024 
L 100.1484 164.582513 
L 100.9638 163.6165 
L 101.581889 162.8496 
L 101.7792 162.602908 
L 102.5946 161.544936 
L 103.233185 160.6752 
L 103.41 160.431467 
L 103.41 158.5008 
L 103.41 156.3264 
L 103.41 154.152 
L 103.41 151.9776 
L 103.41 149.8032 
L 103.41 147.6288 
L 103.41 145.4544 
L 103.41 143.28 
L 103.41 141.1056 
L 103.41 138.9312 
L 103.41 136.7568 
L 103.41 134.5824 
L 103.41 132.408 
L 103.41 130.2336 
L 103.41 128.0592 
L 103.41 125.8848 
L 103.41 123.7104 
L 103.41 121.536 
L 103.41 119.3616 
L 103.41 117.1872 
L 103.41 115.0128 
L 103.41 112.8384 
L 103.41 110.664 
L 103.41 108.4896 
L 103.41 106.3152 
L 103.41 104.1408 
L 103.41 101.9664 
L 103.41 99.792 
L 103.41 97.6176 
L 103.41 95.4432 
L 103.41 93.2688 
L 103.41 91.0944 
L 103.41 88.92 
L 103.41 86.7456 
L 103.41 84.5712 
L 103.41 82.3968 
L 103.41 80.2224 
L 103.41 78.048 
L 103.41 75.8736 
L 103.41 73.6992 
L 103.41 71.5248 
L 103.41 70.366914 
L 102.886382 69.3504 
L 102.5946 68.840877 
L 101.7792 67.361764 
L 101.681106 67.176 
L 100.9638 65.957413 
L 100.421901 65.0016 
L 100.1484 64.567971 
L 99.333 63.226953 
L 99.099852 62.8272 
L 98.5176 61.93223 
L 97.711482 60.6528 
L 97.7022 60.63955 
L 96.8868 59.426404 
L 96.269114 58.4784 
L 96.0714 58.206107 
L 95.256 57.039936 
L 94.759072 56.304 
L 94.4406 55.881739 
L 93.6252 54.762408 
L 93.181236 54.1296 
L 92.8098 53.656663 
L 91.9944 52.583513 
L 91.53489 51.9552 
L 91.179 51.52138 
L 90.3636 50.493047 
L 89.818248 49.7808 
L 89.5482 49.466862 
L 88.7328 48.480944 
L 88.027405 47.6064 
L 87.9174 47.485041 
L 87.102 46.537375 
L 86.2866 45.578052 
L 86.172377 45.432 
L 85.4712 44.653069 
L 84.6558 43.736314 
L 84.258637 43.2576 
L 83.8404 42.820606 
L 83.025 41.940707 
L 82.252507 41.0832 
L 82.2096 41.041419 
L 81.3942 40.180439 
L 80.5788 39.335987 
L 80.225701 38.9088 
L 79.7634 38.446619 
L 78.948 37.658142 
L 78.1326 36.873683 
L 78.042527 36.7344 
L 77.3172 36.7344 
L 77.208704 36.7344 
L 77.3172 37.051593 
L 78.1326 38.333835 
L 78.586517 38.9088 
L 78.948 39.70515 
L 79.7634 41.030151 
L 79.802625 41.0832 
L 80.5788 42.574473 
L 81.006536 43.2576 
L 81.3942 44.091854 
L 82.133195 45.432 
L 82.2096 45.611922 
L 83.025 47.262577 
L 83.218076 47.6064 
L 83.8404 48.994882 
L 84.239519 49.7808 
L 84.6558 50.794679 
L 85.192489 51.9552 
L 85.4712 52.69373 
L 86.078167 54.1296 
L 86.2866 54.72974 
L 86.895988 56.304 
L 87.102 56.948531 
L 87.644591 58.4784 
L 87.9174 59.406581 
L 88.322207 60.6528 
L 88.7328 62.174193 
L 88.926856 62.8272 
L 89.459745 65.0016 
L 89.5482 65.448291 
L 89.92373 67.176 
L 90.310232 69.3504 
L 90.3636 69.744812 
L 90.626912 71.5248 
L 90.866827 73.6992 
L 91.029435 75.8736 
L 91.114058 78.048 
L 91.118745 80.2224 
L 91.040564 82.3968 
L 90.875803 84.5712 
L 90.620115 86.7456 
L 90.3636 88.362092 
L 90.268877 88.92 
L 89.816478 91.0944 
L 89.5482 92.173405 
L 89.255007 93.2688 
L 88.7328 94.969458 
L 88.57557 95.4432 
L 87.9174 97.237462 
L 87.766139 97.6176 
L 87.102 99.168113 
L 86.811172 99.792 
L 86.2866 100.858094 
L 85.691343 101.9664 
L 85.4712 102.360617 
L 84.6558 103.714849 
L 84.377932 104.1408 
L 83.8404 104.947065 
L 83.025 106.068257 
L 82.832074 106.3152 
L 82.2096 107.105075 
L 81.3942 108.054776 
L 80.990709 108.4896 
L 80.5788 108.934159 
L 79.7634 109.750933 
L 78.948 110.497948 
L 78.753499 110.664 
L 78.1326 111.200703 
L 77.3172 111.850293 
L 76.5018 112.444971 
L 75.914942 112.8384 
L 75.6864 112.994835 
L 74.871 113.512129 
L 74.0556 113.984011 
L 73.2402 114.413153 
L 72.4248 114.801946 
L 71.936883 115.0128 
L 71.6094 115.15878 
L 70.794 115.487398 
L 69.9786 115.780133 
L 69.1632 116.038415 
L 68.3478 116.263498 
L 67.5324 116.456461 
L 66.717 116.618223 
L 65.9016 116.749552 
L 65.0862 116.851064 
L 64.2708 116.923236 
L 63.4554 116.966405 
L 62.64 116.980773 
L 61.8246 116.966405 
L 61.0092 116.923236 
L 60.1938 116.851064 
L 59.3784 116.749552 
L 58.563 116.618223 
L 57.7476 116.456461 
L 56.9322 116.263498 
L 56.1168 116.038415 
L 55.3014 115.780133 
L 54.486 115.487398 
L 53.6706 115.15878 
L 53.343117 115.0128 
L 52.8552 114.801946 
L 52.0398 114.413153 
L 51.2244 113.984011 
L 50.409 113.512129 
L 49.5936 112.994835 
L 49.365058 112.8384 
L 48.7782 112.444971 
L 47.9628 111.850293 
L 47.1474 111.200703 
L 46.526501 110.664 
L 46.332 110.497948 
L 45.5166 109.750933 
L 44.7012 108.934159 
L 44.289291 108.4896 
L 43.8858 108.054776 
L 43.0704 107.105075 
L 42.447926 106.3152 
L 42.255 106.068257 
L 41.4396 104.947065 
L 40.902068 104.1408 
L 40.6242 103.714849 
L 39.8088 102.360617 
L 39.588657 101.9664 
L 38.9934 100.858094 
L 38.468828 99.792 
L 38.178 99.168113 
L 37.513861 97.6176 
L 37.3626 97.237462 
L 36.70443 95.4432 
L 36.5472 94.969458 
L 36.024993 93.2688 
L 35.7318 92.173405 
L 35.463522 91.0944 
L 35.011123 88.92 
L 34.9164 88.362092 
L 34.659885 86.7456 
L 34.404197 84.5712 
L 34.239436 82.3968 
L 34.161255 80.2224 
L 34.165942 78.048 
L 34.250565 75.8736 
L 34.413173 73.6992 
L 34.653088 71.5248 
L 34.9164 69.744812 
L 34.969768 69.3504 
L 35.35627 67.176 
L 35.7318 65.448291 
L 35.820255 65.0016 
L 36.353144 62.8272 
L 36.5472 62.174193 
L 36.957793 60.6528 
L 37.3626 59.406581 
L 37.635409 58.4784 
L 38.178 56.948531 
L 38.384012 56.304 
L 38.9934 54.72974 
L 39.201833 54.1296 
L 39.8088 52.69373 
L 40.087511 51.9552 
L 40.6242 50.794679 
L 41.040481 49.7808 
L 41.4396 48.994882 
L 42.061924 47.6064 
L 42.255 47.262577 
L 43.0704 45.611922 
L 43.146805 45.432 
L 43.8858 44.091854 
L 44.273464 43.2576 
L 44.7012 42.574473 
L 45.477375 41.0832 
L 45.5166 41.030151 
L 46.332 39.70515 
L 46.693483 38.9088 
L 47.1474 38.333835 
L 47.9628 37.051593 
L 48.071296 36.7344 
L 47.9628 36.7344 
L 47.237473 36.7344 
L 47.1474 36.873683 
L 46.332 37.658142 
L 45.5166 38.446619 
L 45.054299 38.9088 
L 44.7012 39.335987 
L 43.8858 40.180439 
L 43.0704 41.041419 
L 43.027493 41.0832 
L 42.255 41.940707 
L 41.4396 42.820606 
L 41.021363 43.2576 
L 40.6242 43.736314 
L 39.8088 44.653069 
L 39.107623 45.432 
L 38.9934 45.578052 
L 38.178 46.537375 
L 37.3626 47.485041 
L 37.252595 47.6064 
L 36.5472 48.480944 
L 35.7318 49.466862 
L 35.461752 49.7808 
L 34.9164 50.493047 
L 34.101 51.52138 
L 33.74511 51.9552 
L 33.2856 52.583513 
L 32.4702 53.656663 
L 32.098764 54.1296 
L 31.6548 54.762408 
L 30.8394 55.881739 
L 30.520928 56.304 
L 30.024 57.039936 
L 29.2086 58.206107 
L 29.010886 58.4784 
L 28.3932 59.426404 
L 27.5778 60.63955 
L 27.568518 60.6528 
L 26.7624 61.93223 
L 26.180148 62.8272 
L 25.947 63.226953 
L 25.1316 64.567971 
L 24.858099 65.0016 
L 24.3162 65.957413 
L 23.598894 67.176 
L 23.5008 67.361764 
L 22.6854 68.840877 
z
" style="fill:#327cb7;"/>
   </g>
   <g id="PathCollection_3">
    <path clip-path="url(#pb1fda75bc2)" d="M 34.653088 71.5248 
L 34.413173 73.6992 
L 34.250565 75.8736 
L 34.165942 78.048 
L 34.161255 80.2224 
L 34.239436 82.3968 
L 34.404197 84.5712 
L 34.659885 86.7456 
L 34.9164 88.362092 
L 35.011123 88.92 
L 35.463522 91.0944 
L 35.7318 92.173405 
L 36.024993 93.2688 
L 36.5472 94.969458 
L 36.70443 95.4432 
L 37.3626 97.237462 
L 37.513861 97.6176 
L 38.178 99.168113 
L 38.468828 99.792 
L 38.9934 100.858094 
L 39.588657 101.9664 
L 39.8088 102.360617 
L 40.6242 103.714849 
L 40.902068 104.1408 
L 41.4396 104.947065 
L 42.255 106.068257 
L 42.447926 106.3152 
L 43.0704 107.105075 
L 43.8858 108.054776 
L 44.289291 108.4896 
L 44.7012 108.934159 
L 45.5166 109.750933 
L 46.332 110.497948 
L 46.526501 110.664 
L 47.1474 111.200703 
L 47.9628 111.850293 
L 48.7782 112.444971 
L 49.365058 112.8384 
L 49.5936 112.994835 
L 50.409 113.512129 
L 51.2244 113.984011 
L 52.0398 114.413153 
L 52.8552 114.801946 
L 53.343117 115.0128 
L 53.6706 115.15878 
L 54.486 115.487398 
L 55.3014 115.780133 
L 56.1168 116.038415 
L 56.9322 116.263498 
L 57.7476 116.456461 
L 58.563 116.618223 
L 59.3784 116.749552 
L 60.1938 116.851064 
L 61.0092 116.923236 
L 61.8246 116.966405 
L 62.64 116.980773 
L 63.4554 116.966405 
L 64.2708 116.923236 
L 65.0862 116.851064 
L 65.9016 116.749552 
L 66.717 116.618223 
L 67.5324 116.456461 
L 68.3478 116.263498 
L 69.1632 116.038415 
L 69.9786 115.780133 
L 70.794 115.487398 
L 71.6094 115.15878 
L 71.936883 115.0128 
L 72.4248 114.801946 
L 73.2402 114.413153 
L 74.0556 113.984011 
L 74.871 113.512129 
L 75.6864 112.994835 
L 75.914942 112.8384 
L 76.5018 112.444971 
L 77.3172 111.850293 
L 78.1326 111.200703 
L 78.753499 110.664 
L 78.948 110.497948 
L 79.7634 109.750933 
L 80.5788 108.934159 
L 80.990709 108.4896 
L 81.3942 108.054776 
L 82.2096 107.105075 
L 82.832074 106.3152 
L 83.025 106.068257 
L 83.8404 104.947065 
L 84.377932 104.1408 
L 84.6558 103.714849 
L 85.4712 102.360617 
L 85.691343 101.9664 
L 86.2866 100.858094 
L 86.811172 99.792 
L 87.102 99.168113 
L 87.766139 97.6176 
L 87.9174 97.237462 
L 88.57557 95.4432 
L 88.7328 94.969458 
L 89.255007 93.2688 
L 89.5482 92.173405 
L 89.816478 91.0944 
L 90.268877 88.92 
L 90.3636 88.362092 
L 90.620115 86.7456 
L 90.875803 84.5712 
L 91.040564 82.3968 
L 91.118745 80.2224 
L 91.114058 78.048 
L 91.029435 75.8736 
L 90.866827 73.6992 
L 90.626912 71.5248 
L 90.3636 69.744812 
L 90.310232 69.3504 
L 89.92373 67.176 
L 89.5482 65.448291 
L 89.459745 65.0016 
L 88.926856 62.8272 
L 88.7328 62.174193 
L 88.322207 60.6528 
L 87.9174 59.406581 
L 87.644591 58.4784 
L 87.102 56.948531 
L 86.895988 56.304 
L 86.2866 54.72974 
L 86.078167 54.1296 
L 85.4712 52.69373 
L 85.192489 51.9552 
L 84.6558 50.794679 
L 84.239519 49.7808 
L 83.8404 48.994882 
L 83.218076 47.6064 
L 83.025 47.262577 
L 82.2096 45.611922 
L 82.133195 45.432 
L 81.3942 44.091854 
L 81.006536 43.2576 
L 80.5788 42.574473 
L 79.802625 41.0832 
L 79.7634 41.030151 
L 78.948 39.70515 
L 78.586517 38.9088 
L 78.1326 38.333835 
L 77.3172 37.051593 
L 77.208704 36.7344 
L 76.740773 36.7344 
L 77.3172 38.419617 
L 77.619721 38.9088 
L 78.1326 40.59979 
L 78.356672 41.0832 
L 78.948 43.016916 
L 79.047514 43.2576 
L 79.694926 45.432 
L 79.7634 45.732009 
L 80.291937 47.6064 
L 80.5788 48.887578 
L 80.818705 49.7808 
L 81.272568 51.9552 
L 81.3942 52.725584 
L 81.652247 54.1296 
L 81.946761 56.304 
L 82.151415 58.4784 
L 82.2096 59.662818 
L 82.264829 60.6528 
L 82.279604 62.8272 
L 82.2096 64.543256 
L 82.18914 65.0016 
L 81.987358 67.176 
L 81.663938 69.3504 
L 81.3942 70.692049 
L 81.208044 71.5248 
L 80.605697 73.6992 
L 80.5788 73.78398 
L 79.835507 75.8736 
L 79.7634 76.05532 
L 78.948 77.891535 
L 78.869826 78.048 
L 78.1326 79.444943 
L 77.664626 80.2224 
L 77.3172 80.781812 
L 76.5018 81.953123 
L 76.154787 82.3968 
L 75.6864 82.992434 
L 74.871 83.917119 
L 74.216654 84.5712 
L 74.0556 84.734261 
L 73.2402 85.483321 
L 72.4248 86.141781 
L 71.6094 86.719384 
L 71.56812 86.7456 
L 70.794 87.255005 
L 69.9786 87.72403 
L 69.1632 88.130459 
L 68.3478 88.479044 
L 67.5324 88.773767 
L 67.046512 88.92 
L 66.717 89.024638 
L 65.9016 89.234586 
L 65.0862 89.395796 
L 64.2708 89.509842 
L 63.4554 89.577833 
L 62.64 89.600424 
L 61.8246 89.577833 
L 61.0092 89.509842 
L 60.1938 89.395796 
L 59.3784 89.234586 
L 58.563 89.024638 
L 58.233488 88.92 
L 57.7476 88.773767 
L 56.9322 88.479044 
L 56.1168 88.130459 
L 55.3014 87.72403 
L 54.486 87.255005 
L 53.71188 86.7456 
L 53.6706 86.719384 
L 52.8552 86.141781 
L 52.0398 85.483321 
L 51.2244 84.734261 
L 51.063346 84.5712 
L 50.409 83.917119 
L 49.5936 82.992434 
L 49.125213 82.3968 
L 48.7782 81.953123 
L 47.9628 80.781812 
L 47.615374 80.2224 
L 47.1474 79.444943 
L 46.410174 78.048 
L 46.332 77.891535 
L 45.5166 76.05532 
L 45.444493 75.8736 
L 44.7012 73.78398 
L 44.674303 73.6992 
L 44.071956 71.5248 
L 43.8858 70.692049 
L 43.616062 69.3504 
L 43.292642 67.176 
L 43.09086 65.0016 
L 43.0704 64.543256 
L 43.000396 62.8272 
L 43.015171 60.6528 
L 43.0704 59.662818 
L 43.128585 58.4784 
L 43.333239 56.304 
L 43.627753 54.1296 
L 43.8858 52.725584 
L 44.007432 51.9552 
L 44.461295 49.7808 
L 44.7012 48.887578 
L 44.988063 47.6064 
L 45.5166 45.732009 
L 45.585074 45.432 
L 46.232486 43.2576 
L 46.332 43.016916 
L 46.923328 41.0832 
L 47.1474 40.59979 
L 47.660279 38.9088 
L 47.9628 38.419617 
L 48.539227 36.7344 
L 48.071296 36.7344 
L 47.9628 37.051593 
L 47.1474 38.333835 
L 46.693483 38.9088 
L 46.332 39.70515 
L 45.5166 41.030151 
L 45.477375 41.0832 
L 44.7012 42.574473 
L 44.273464 43.2576 
L 43.8858 44.091854 
L 43.146805 45.432 
L 43.0704 45.611922 
L 42.255 47.262577 
L 42.061924 47.6064 
L 41.4396 48.994882 
L 41.040481 49.7808 
L 40.6242 50.794679 
L 40.087511 51.9552 
L 39.8088 52.69373 
L 39.201833 54.1296 
L 38.9934 54.72974 
L 38.384012 56.304 
L 38.178 56.948531 
L 37.635409 58.4784 
L 37.3626 59.406581 
L 36.957793 60.6528 
L 36.5472 62.174193 
L 36.353144 62.8272 
L 35.820255 65.0016 
L 35.7318 65.448291 
L 35.35627 67.176 
L 34.969768 69.3504 
L 34.9164 69.744812 
z
" style="fill:#6bacd1;"/>
   </g>
   <g id="PathCollection_4">
    <path clip-path="url(#pb1fda75bc2)" d="M 43.015171 60.6528 
L 43.000396 62.8272 
L 43.0704 64.543256 
L 43.09086 65.0016 
L 43.292642 67.176 
L 43.616062 69.3504 
L 43.8858 70.692049 
L 44.071956 71.5248 
L 44.674303 73.6992 
L 44.7012 73.78398 
L 45.444493 75.8736 
L 45.5166 76.05532 
L 46.332 77.891535 
L 46.410174 78.048 
L 47.1474 79.444943 
L 47.615374 80.2224 
L 47.9628 80.781812 
L 48.7782 81.953123 
L 49.125213 82.3968 
L 49.5936 82.992434 
L 50.409 83.917119 
L 51.063346 84.5712 
L 51.2244 84.734261 
L 52.0398 85.483321 
L 52.8552 86.141781 
L 53.6706 86.719384 
L 53.71188 86.7456 
L 54.486 87.255005 
L 55.3014 87.72403 
L 56.1168 88.130459 
L 56.9322 88.479044 
L 57.7476 88.773767 
L 58.233488 88.92 
L 58.563 89.024638 
L 59.3784 89.234586 
L 60.1938 89.395796 
L 61.0092 89.509842 
L 61.8246 89.577833 
L 62.64 89.600424 
L 63.4554 89.577833 
L 64.2708 89.509842 
L 65.0862 89.395796 
L 65.9016 89.234586 
L 66.717 89.024638 
L 67.046512 88.92 
L 67.5324 88.773767 
L 68.3478 88.479044 
L 69.1632 88.130459 
L 69.9786 87.72403 
L 70.794 87.255005 
L 71.56812 86.7456 
L 71.6094 86.719384 
L 72.4248 86.141781 
L 73.2402 85.483321 
L 74.0556 84.734261 
L 74.216654 84.5712 
L 74.871 83.917119 
L 75.6864 82.992434 
L 76.154787 82.3968 
L 76.5018 81.953123 
L 77.3172 80.781812 
L 77.664626 80.2224 
L 78.1326 79.444943 
L 78.869826 78.048 
L 78.948 77.891535 
L 79.7634 76.05532 
L 79.835507 75.8736 
L 80.5788 73.78398 
L 80.605697 73.6992 
L 81.208044 71.5248 
L 81.3942 70.692049 
L 81.663938 69.3504 
L 81.987358 67.176 
L 82.18914 65.0016 
L 82.2096 64.543256 
L 82.279604 62.8272 
L 82.264829 60.6528 
L 82.2096 59.662818 
L 82.151415 58.4784 
L 81.946761 56.304 
L 81.652247 54.1296 
L 81.3942 52.725584 
L 81.272568 51.9552 
L 80.818705 49.7808 
L 80.5788 48.887578 
L 80.291937 47.6064 
L 79.7634 45.732009 
L 79.694926 45.432 
L 79.047514 43.2576 
L 78.948 43.016916 
L 78.356672 41.0832 
L 78.1326 40.59979 
L 77.619721 38.9088 
L 77.3172 38.419617 
L 76.740773 36.7344 
L 76.5018 36.7344 
L 76.355863 36.7344 
L 76.5018 37.754468 
L 76.879261 38.9088 
L 77.217546 41.0832 
L 77.3172 41.960679 
L 77.524759 43.2576 
L 77.779691 45.432 
L 77.970075 47.6064 
L 78.084758 49.7808 
L 78.11077 51.9552 
L 78.034316 54.1296 
L 77.840782 56.304 
L 77.514602 58.4784 
L 77.3172 59.451297 
L 77.036345 60.6528 
L 76.5018 62.476266 
L 76.382225 62.8272 
L 75.6864 64.622554 
L 75.514278 65.0016 
L 74.871 66.318729 
L 74.376762 67.176 
L 74.0556 67.713037 
L 73.2402 68.893169 
L 72.872494 69.3504 
L 72.4248 69.907863 
L 71.6094 70.7867 
L 70.798224 71.5248 
L 70.794 71.528745 
L 69.9786 72.203787 
L 69.1632 72.774831 
L 68.3478 73.254455 
L 67.5324 73.652741 
L 67.417929 73.6992 
L 66.717 74.00171 
L 65.9016 74.282671 
L 65.0862 74.496502 
L 64.2708 74.646779 
L 63.4554 74.735977 
L 62.64 74.76555 
L 61.8246 74.735977 
L 61.0092 74.646779 
L 60.1938 74.496502 
L 59.3784 74.282671 
L 58.563 74.00171 
L 57.862071 73.6992 
L 57.7476 73.652741 
L 56.9322 73.254455 
L 56.1168 72.774831 
L 55.3014 72.203787 
L 54.486 71.528745 
L 54.481776 71.5248 
L 53.6706 70.7867 
L 52.8552 69.907863 
L 52.407506 69.3504 
L 52.0398 68.893169 
L 51.2244 67.713037 
L 50.903238 67.176 
L 50.409 66.318729 
L 49.765722 65.0016 
L 49.5936 64.622554 
L 48.897775 62.8272 
L 48.7782 62.476266 
L 48.243655 60.6528 
L 47.9628 59.451297 
L 47.765398 58.4784 
L 47.439218 56.304 
L 47.245684 54.1296 
L 47.16923 51.9552 
L 47.195242 49.7808 
L 47.309925 47.6064 
L 47.500309 45.432 
L 47.755241 43.2576 
L 47.9628 41.960679 
L 48.062454 41.0832 
L 48.400739 38.9088 
L 48.7782 37.754468 
L 48.924137 36.7344 
L 48.7782 36.7344 
L 48.539227 36.7344 
L 47.9628 38.419617 
L 47.660279 38.9088 
L 47.1474 40.59979 
L 46.923328 41.0832 
L 46.332 43.016916 
L 46.232486 43.2576 
L 45.585074 45.432 
L 45.5166 45.732009 
L 44.988063 47.6064 
L 44.7012 48.887578 
L 44.461295 49.7808 
L 44.007432 51.9552 
L 43.8858 52.725584 
L 43.627753 54.1296 
L 43.333239 56.304 
L 43.128585 58.4784 
L 43.0704 59.662818 
z
" style="fill:#b1d5e7;"/>
   </g>
   <g id="PathCollection_5">
    <path clip-path="url(#pb1fda75bc2)" d="M 47.755241 43.2576 
L 47.500309 45.432 
L 47.309925 47.6064 
L 47.195242 49.7808 
L 47.16923 51.9552 
L 47.245684 54.1296 
L 47.439218 56.304 
L 47.765398 58.4784 
L 47.9628 59.451297 
L 48.243655 60.6528 
L 48.7782 62.476266 
L 48.897775 62.8272 
L 49.5936 64.622554 
L 49.765722 65.0016 
L 50.409 66.318729 
L 50.903238 67.176 
L 51.2244 67.713037 
L 52.0398 68.893169 
L 52.407506 69.3504 
L 52.8552 69.907863 
L 53.6706 70.7867 
L 54.481776 71.5248 
L 54.486 71.528745 
L 55.3014 72.203787 
L 56.1168 72.774831 
L 56.9322 73.254455 
L 57.7476 73.652741 
L 57.862071 73.6992 
L 58.563 74.00171 
L 59.3784 74.282671 
L 60.1938 74.496502 
L 61.0092 74.646779 
L 61.8246 74.735977 
L 62.64 74.76555 
L 63.4554 74.735977 
L 64.2708 74.646779 
L 65.0862 74.496502 
L 65.9016 74.282671 
L 66.717 74.00171 
L 67.417929 73.6992 
L 67.5324 73.652741 
L 68.3478 73.254455 
L 69.1632 72.774831 
L 69.9786 72.203787 
L 70.794 71.528745 
L 70.798224 71.5248 
L 71.6094 70.7867 
L 72.4248 69.907863 
L 72.872494 69.3504 
L 73.2402 68.893169 
L 74.0556 67.713037 
L 74.376762 67.176 
L 74.871 66.318729 
L 75.514278 65.0016 
L 75.6864 64.622554 
L 76.382225 62.8272 
L 76.5018 62.476266 
L 77.036345 60.6528 
L 77.3172 59.451297 
L 77.514602 58.4784 
L 77.840782 56.304 
L 78.034316 54.1296 
L 78.11077 51.9552 
L 78.084758 49.7808 
L 77.970075 47.6064 
L 77.779691 45.432 
L 77.524759 43.2576 
L 77.3172 41.960679 
L 77.217546 41.0832 
L 76.879261 38.9088 
L 76.5018 37.754468 
L 76.355863 36.7344 
L 76.057605 36.7344 
L 76.217853 38.9088 
L 76.201846 41.0832 
L 76.14577 43.2576 
L 76.034052 45.432 
L 75.844357 47.6064 
L 75.6864 48.882556 
L 75.551514 49.7808 
L 75.129129 51.9552 
L 74.871 53.014301 
L 74.544933 54.1296 
L 74.0556 55.57273 
L 73.756873 56.304 
L 73.2402 57.471516 
L 72.700055 58.4784 
L 72.4248 58.972198 
L 71.6094 60.207861 
L 71.257891 60.6528 
L 70.794 61.244042 
L 69.9786 62.118666 
L 69.172942 62.8272 
L 69.1632 62.836076 
L 68.3478 63.476353 
L 67.5324 63.999326 
L 66.717 64.42033 
L 65.9016 64.751001 
L 65.0862 65.000029 
L 65.078916 65.0016 
L 64.2708 65.190684 
L 63.4554 65.303504 
L 62.64 65.340837 
L 61.8246 65.303504 
L 61.0092 65.190684 
L 60.201084 65.0016 
L 60.1938 65.000029 
L 59.3784 64.751001 
L 58.563 64.42033 
L 57.7476 63.999326 
L 56.9322 63.476353 
L 56.1168 62.836076 
L 56.107058 62.8272 
L 55.3014 62.118666 
L 54.486 61.244042 
L 54.022109 60.6528 
L 53.6706 60.207861 
L 52.8552 58.972198 
L 52.579945 58.4784 
L 52.0398 57.471516 
L 51.523127 56.304 
L 51.2244 55.57273 
L 50.735067 54.1296 
L 50.409 53.014301 
L 50.150871 51.9552 
L 49.728486 49.7808 
L 49.5936 48.882556 
L 49.435643 47.6064 
L 49.245948 45.432 
L 49.13423 43.2576 
L 49.078154 41.0832 
L 49.062147 38.9088 
L 49.222395 36.7344 
L 48.924137 36.7344 
L 48.7782 37.754468 
L 48.400739 38.9088 
L 48.062454 41.0832 
L 47.9628 41.960679 
z
" style="fill:#e4eef4;"/>
   </g>
   <g id="PathCollection_6">
    <path clip-path="url(#pb1fda75bc2)" d="M 49.062147 38.9088 
L 49.078154 41.0832 
L 49.13423 43.2576 
L 49.245948 45.432 
L 49.435643 47.6064 
L 49.5936 48.882556 
L 49.728486 49.7808 
L 50.150871 51.9552 
L 50.409 53.014301 
L 50.735067 54.1296 
L 51.2244 55.57273 
L 51.523127 56.304 
L 52.0398 57.471516 
L 52.579945 58.4784 
L 52.8552 58.972198 
L 53.6706 60.207861 
L 54.022109 60.6528 
L 54.486 61.244042 
L 55.3014 62.118666 
L 56.107058 62.8272 
L 56.1168 62.836076 
L 56.9322 63.476353 
L 57.7476 63.999326 
L 58.563 64.42033 
L 59.3784 64.751001 
L 60.1938 65.000029 
L 60.201084 65.0016 
L 61.0092 65.190684 
L 61.8246 65.303504 
L 62.64 65.340837 
L 63.4554 65.303504 
L 64.2708 65.190684 
L 65.078916 65.0016 
L 65.0862 65.000029 
L 65.9016 64.751001 
L 66.717 64.42033 
L 67.5324 63.999326 
L 68.3478 63.476353 
L 69.1632 62.836076 
L 69.172942 62.8272 
L 69.9786 62.118666 
L 70.794 61.244042 
L 71.257891 60.6528 
L 71.6094 60.207861 
L 72.4248 58.972198 
L 72.700055 58.4784 
L 73.2402 57.471516 
L 73.756873 56.304 
L 74.0556 55.57273 
L 74.544933 54.1296 
L 74.871 53.014301 
L 75.129129 51.9552 
L 75.551514 49.7808 
L 75.6864 48.882556 
L 75.844357 47.6064 
L 76.034052 45.432 
L 76.14577 43.2576 
L 76.201846 41.0832 
L 76.217853 38.9088 
L 76.057605 36.7344 
L 75.759347 36.7344 
L 75.6864 38.033858 
L 75.568619 38.9088 
L 75.179431 41.0832 
L 74.871 42.810097 
L 74.757833 43.2576 
L 74.259571 45.432 
L 74.0556 46.275646 
L 73.6475 47.6064 
L 73.2402 48.868141 
L 72.873027 49.7808 
L 72.4248 50.863023 
L 71.864187 51.9552 
L 71.6094 52.445085 
L 70.794 53.741801 
L 70.497695 54.1296 
L 69.9786 54.821954 
L 69.1632 55.715316 
L 68.50164 56.304 
L 68.3478 56.446607 
L 67.5324 57.078929 
L 66.717 57.582426 
L 65.9016 57.97477 
L 65.0862 58.268616 
L 64.2708 58.472792 
L 64.233086 58.4784 
L 63.4554 58.604205 
L 62.64 58.647801 
L 61.8246 58.604205 
L 61.046914 58.4784 
L 61.0092 58.472792 
L 60.1938 58.268616 
L 59.3784 57.97477 
L 58.563 57.582426 
L 57.7476 57.078929 
L 56.9322 56.446607 
L 56.77836 56.304 
L 56.1168 55.715316 
L 55.3014 54.821954 
L 54.782305 54.1296 
L 54.486 53.741801 
L 53.6706 52.445085 
L 53.415813 51.9552 
L 52.8552 50.863023 
L 52.406973 49.7808 
L 52.0398 48.868141 
L 51.6325 47.6064 
L 51.2244 46.275646 
L 51.020429 45.432 
L 50.522167 43.2576 
L 50.409 42.810097 
L 50.100569 41.0832 
L 49.711381 38.9088 
L 49.5936 38.033858 
L 49.520653 36.7344 
L 49.222395 36.7344 
z
" style="fill:#fae9df;"/>
   </g>
   <g id="PathCollection_7">
    <path clip-path="url(#pb1fda75bc2)" d="M 49.5936 38.033858 
L 49.711381 38.9088 
L 50.100569 41.0832 
L 50.409 42.810097 
L 50.522167 43.2576 
L 51.020429 45.432 
L 51.2244 46.275646 
L 51.6325 47.6064 
L 52.0398 48.868141 
L 52.406973 49.7808 
L 52.8552 50.863023 
L 53.415813 51.9552 
L 53.6706 52.445085 
L 54.486 53.741801 
L 54.782305 54.1296 
L 55.3014 54.821954 
L 56.1168 55.715316 
L 56.77836 56.304 
L 56.9322 56.446607 
L 57.7476 57.078929 
L 58.563 57.582426 
L 59.3784 57.97477 
L 60.1938 58.268616 
L 61.0092 58.472792 
L 61.046914 58.4784 
L 61.8246 58.604205 
L 62.64 58.647801 
L 63.4554 58.604205 
L 64.233086 58.4784 
L 64.2708 58.472792 
L 65.0862 58.268616 
L 65.9016 57.97477 
L 66.717 57.582426 
L 67.5324 57.078929 
L 68.3478 56.446607 
L 68.50164 56.304 
L 69.1632 55.715316 
L 69.9786 54.821954 
L 70.497695 54.1296 
L 70.794 53.741801 
L 71.6094 52.445085 
L 71.864187 51.9552 
L 72.4248 50.863023 
L 72.873027 49.7808 
L 73.2402 48.868141 
L 73.6475 47.6064 
L 74.0556 46.275646 
L 74.259571 45.432 
L 74.757833 43.2576 
L 74.871 42.810097 
L 75.179431 41.0832 
L 75.568619 38.9088 
L 75.6864 38.033858 
L 75.759347 36.7344 
L 75.6864 36.7344 
L 75.393162 36.7344 
L 74.871 38.869719 
L 74.847765 38.9088 
L 74.0556 41.062681 
L 74.044604 41.0832 
L 73.2402 43.16483 
L 73.19211 43.2576 
L 72.4248 45.055557 
L 72.21934 45.432 
L 71.6094 46.680093 
L 71.042002 47.6064 
L 70.794 48.037751 
L 69.9786 49.20801 
L 69.490614 49.7808 
L 69.1632 50.183956 
L 68.3478 51.015084 
L 67.5324 51.6845 
L 67.125799 51.9552 
L 66.717 52.241317 
L 65.9016 52.691885 
L 65.0862 53.029273 
L 64.2708 53.263846 
L 63.4554 53.402177 
L 62.64 53.447901 
L 61.8246 53.402177 
L 61.0092 53.263846 
L 60.1938 53.029273 
L 59.3784 52.691885 
L 58.563 52.241317 
L 58.154201 51.9552 
L 57.7476 51.6845 
L 56.9322 51.015084 
L 56.1168 50.183956 
L 55.789386 49.7808 
L 55.3014 49.20801 
L 54.486 48.037751 
L 54.237998 47.6064 
L 53.6706 46.680093 
L 53.06066 45.432 
L 52.8552 45.055557 
L 52.08789 43.2576 
L 52.0398 43.16483 
L 51.235396 41.0832 
L 51.2244 41.062681 
L 50.432235 38.9088 
L 50.409 38.869719 
L 49.886838 36.7344 
L 49.5936 36.7344 
L 49.520653 36.7344 
z
" style="fill:#f8bfa4;"/>
   </g>
   <g id="PathCollection_8">
    <path clip-path="url(#pb1fda75bc2)" d="M 50.409 38.869719 
L 50.432235 38.9088 
L 51.2244 41.062681 
L 51.235396 41.0832 
L 52.0398 43.16483 
L 52.08789 43.2576 
L 52.8552 45.055557 
L 53.06066 45.432 
L 53.6706 46.680093 
L 54.237998 47.6064 
L 54.486 48.037751 
L 55.3014 49.20801 
L 55.789386 49.7808 
L 56.1168 50.183956 
L 56.9322 51.015084 
L 57.7476 51.6845 
L 58.154201 51.9552 
L 58.563 52.241317 
L 59.3784 52.691885 
L 60.1938 53.029273 
L 61.0092 53.263846 
L 61.8246 53.402177 
L 62.64 53.447901 
L 63.4554 53.402177 
L 64.2708 53.263846 
L 65.0862 53.029273 
L 65.9016 52.691885 
L 66.717 52.241317 
L 67.125799 51.9552 
L 67.5324 51.6845 
L 68.3478 51.015084 
L 69.1632 50.183956 
L 69.490614 49.7808 
L 69.9786 49.20801 
L 70.794 48.037751 
L 71.042002 47.6064 
L 71.6094 46.680093 
L 72.21934 45.432 
L 72.4248 45.055557 
L 73.19211 43.2576 
L 73.2402 43.16483 
L 74.044604 41.0832 
L 74.0556 41.062681 
L 74.847765 38.9088 
L 74.871 38.869719 
L 75.393162 36.7344 
L 75.004986 36.7344 
L 74.871 37.28232 
L 74.0556 38.176004 
L 73.845969 38.9088 
L 73.2402 40.056821 
L 72.542255 41.0832 
L 72.4248 41.31546 
L 71.6094 42.587879 
L 71.097141 43.2576 
L 70.794 43.727141 
L 69.9786 44.772848 
L 69.375505 45.432 
L 69.1632 45.684912 
L 68.3478 46.49529 
L 67.5324 47.169109 
L 66.894296 47.6064 
L 66.717 47.732046 
L 65.9016 48.191572 
L 65.0862 48.539838 
L 64.2708 48.784564 
L 63.4554 48.930024 
L 62.64 48.978305 
L 61.8246 48.930024 
L 61.0092 48.784564 
L 60.1938 48.539838 
L 59.3784 48.191572 
L 58.563 47.732046 
L 58.385704 47.6064 
L 57.7476 47.169109 
L 56.9322 46.49529 
L 56.1168 45.684912 
L 55.904495 45.432 
L 55.3014 44.772848 
L 54.486 43.727141 
L 54.182859 43.2576 
L 53.6706 42.587879 
L 52.8552 41.31546 
L 52.737745 41.0832 
L 52.0398 40.056821 
L 51.434031 38.9088 
L 51.2244 38.176004 
L 50.409 37.28232 
L 50.275014 36.7344 
L 49.886838 36.7344 
z
" style="fill:#e48066;"/>
   </g>
   <g id="PathCollection_9">
    <path clip-path="url(#pb1fda75bc2)" d="M 50.409 37.28232 
L 51.2244 38.176004 
L 51.434031 38.9088 
L 52.0398 40.056821 
L 52.737745 41.0832 
L 52.8552 41.31546 
L 53.6706 42.587879 
L 54.182859 43.2576 
L 54.486 43.727141 
L 55.3014 44.772848 
L 55.904495 45.432 
L 56.1168 45.684912 
L 56.9322 46.49529 
L 57.7476 47.169109 
L 58.385704 47.6064 
L 58.563 47.732046 
L 59.3784 48.191572 
L 60.1938 48.539838 
L 61.0092 48.784564 
L 61.8246 48.930024 
L 62.64 48.978305 
L 63.4554 48.930024 
L 64.2708 48.784564 
L 65.0862 48.539838 
L 65.9016 48.191572 
L 66.717 47.732046 
L 66.894296 47.6064 
L 67.5324 47.169109 
L 68.3478 46.49529 
L 69.1632 45.684912 
L 69.375505 45.432 
L 69.9786 44.772848 
L 70.794 43.727141 
L 71.097141 43.2576 
L 71.6094 42.587879 
L 72.4248 41.31546 
L 72.542255 41.0832 
L 73.2402 40.056821 
L 73.845969 38.9088 
L 74.0556 38.176004 
L 74.871 37.28232 
L 75.004986 36.7344 
L 74.871 36.7344 
L 74.0556 36.7344 
L 73.2402 36.7344 
L 72.745413 36.7344 
L 72.4248 38.528215 
L 72.186855 38.9088 
L 71.6094 39.508795 
L 70.794 40.26009 
L 69.9786 41.043963 
L 69.932397 41.0832 
L 69.1632 41.739816 
L 68.3478 42.368605 
L 67.5324 42.947856 
L 67.040325 43.2576 
L 66.717 43.451602 
L 65.9016 43.846236 
L 65.0862 44.157739 
L 64.2708 44.384027 
L 63.4554 44.521708 
L 62.64 44.56796 
L 61.8246 44.521708 
L 61.0092 44.384027 
L 60.1938 44.157739 
L 59.3784 43.846236 
L 58.563 43.451602 
L 58.239675 43.2576 
L 57.7476 42.947856 
L 56.9322 42.368605 
L 56.1168 41.739816 
L 55.347603 41.0832 
L 55.3014 41.043963 
L 54.486 40.26009 
L 53.6706 39.508795 
L 53.093145 38.9088 
L 52.8552 38.528215 
L 52.534587 36.7344 
L 52.0398 36.7344 
L 51.2244 36.7344 
L 50.409 36.7344 
L 50.275014 36.7344 
z
" style="fill:#c43b3c;"/>
    <path clip-path="url(#pb1fda75bc2)" d="M 54.486 37.843548 
L 54.956238 36.7344 
L 54.486 36.7344 
L 53.954774 36.7344 
z
" style="fill:#c43b3c;"/>
    <path clip-path="url(#pb1fda75bc2)" d="M 56.9322 37.304088 
L 57.691982 36.7344 
L 56.9322 36.7344 
L 56.689323 36.7344 
z
" style="fill:#c43b3c;"/>
    <path clip-path="url(#pb1fda75bc2)" d="M 60.1938 37.202137 
L 60.411658 36.7344 
L 60.1938 36.7344 
L 59.468908 36.7344 
z
" style="fill:#c43b3c;"/>
    <path clip-path="url(#pb1fda75bc2)" d="M 62.64 37.332764 
L 63.025934 36.7344 
L 62.64 36.7344 
L 62.254066 36.7344 
z
" style="fill:#c43b3c;"/>
    <path clip-path="url(#pb1fda75bc2)" d="M 65.0862 37.202137 
L 65.811092 36.7344 
L 65.0862 36.7344 
L 64.868342 36.7344 
z
" style="fill:#c43b3c;"/>
    <path clip-path="url(#pb1fda75bc2)" d="M 68.3478 37.304088 
L 68.590677 36.7344 
L 68.3478 36.7344 
L 67.588018 36.7344 
z
" style="fill:#c43b3c;"/>
    <path clip-path="url(#pb1fda75bc2)" d="M 70.794 37.843548 
L 71.325226 36.7344 
L 70.794 36.7344 
L 70.323762 36.7344 
z
" style="fill:#c43b3c;"/>
   </g>
   <g id="PathCollection_10">
    <path clip-path="url(#pb1fda75bc2)" d="M 52.8552 38.528215 
L 53.093145 38.9088 
L 53.6706 39.508795 
L 54.486 40.26009 
L 55.3014 41.043963 
L 55.347603 41.0832 
L 56.1168 41.739816 
L 56.9322 42.368605 
L 57.7476 42.947856 
L 58.239675 43.2576 
L 58.563 43.451602 
L 59.3784 43.846236 
L 60.1938 44.157739 
L 61.0092 44.384027 
L 61.8246 44.521708 
L 62.64 44.56796 
L 63.4554 44.521708 
L 64.2708 44.384027 
L 65.0862 44.157739 
L 65.9016 43.846236 
L 66.717 43.451602 
L 67.040325 43.2576 
L 67.5324 42.947856 
L 68.3478 42.368605 
L 69.1632 41.739816 
L 69.932397 41.0832 
L 69.9786 41.043963 
L 70.794 40.26009 
L 71.6094 39.508795 
L 72.186855 38.9088 
L 72.4248 38.528215 
L 72.745413 36.7344 
L 72.4248 36.7344 
L 71.6094 36.7344 
L 71.325226 36.7344 
L 70.794 37.843548 
L 70.323762 36.7344 
L 69.9786 36.7344 
L 69.1632 36.7344 
L 68.590677 36.7344 
L 68.3478 37.304088 
L 67.588018 36.7344 
L 67.5324 36.7344 
L 66.717 36.7344 
L 65.9016 36.7344 
L 65.811092 36.7344 
L 65.0862 37.202137 
L 64.868342 36.7344 
L 64.2708 36.7344 
L 63.4554 36.7344 
L 63.025934 36.7344 
L 62.64 37.332764 
L 62.254066 36.7344 
L 61.8246 36.7344 
L 61.0092 36.7344 
L 60.411658 36.7344 
L 60.1938 37.202137 
L 59.468908 36.7344 
L 59.3784 36.7344 
L 58.563 36.7344 
L 57.7476 36.7344 
L 57.691982 36.7344 
L 56.9322 37.304088 
L 56.689323 36.7344 
L 56.1168 36.7344 
L 55.3014 36.7344 
L 54.956238 36.7344 
L 54.486 37.843548 
L 53.954774 36.7344 
L 53.6706 36.7344 
L 52.8552 36.7344 
L 52.534587 36.7344 
z
" style="fill:#8a0b25;"/>
   </g>
   <g id="matplotlib.axis_1">
    <g id="xtick_1">
     <g id="line2d_1">
      <defs>
       <path d="M 0 0 
L 0 3.5 
" id="mbc3c0bc29c" style="stroke:#000000;stroke-width:0.8;"/>
      </defs>
      <g>
       <use style="stroke:#000000;stroke-width:0.8;" x="35.46" xlink:href="#mbc3c0bc29c" y="252"/>
      </g>
     </g>
     <g id="text_1">
      <!-- −1 -->
      <g transform="translate(28.088906 266.598437)scale(0.1 -0.1)">
       <defs>
        <path d="M 678 2272 
L 4684 2272 
L 4684 1741 
L 678 1741 
L 678 2272 
z
" id="DejaVuSans-2212" transform="scale(0.015625)"/>
        <path d="M 794 531 
L 1825 531 
L 1825 4091 
L 703 3866 
L 703 4441 
L 1819 4666 
L 2450 4666 
L 2450 531 
L 3481 531 
L 3481 0 
L 794 0 
L 794 531 
z
" id="DejaVuSans-31" transform="scale(0.015625)"/>
       </defs>
       <use xlink:href="#DejaVuSans-2212"/>
       <use x="83.789062" xlink:href="#DejaVuSans-31"/>
      </g>
     </g>
    </g>
    <g id="xtick_2">
     <g id="line2d_2">
      <g>
       <use style="stroke:#000000;stroke-width:0.8;" x="62.64" xlink:href="#mbc3c0bc29c" y="252"/>
      </g>
     </g>
     <g id="text_2">
      <!-- 0 -->
      <g transform="translate(59.45875 266.598437)scale(0.1 -0.1)">
       <defs>
        <path d="M 2034 4250 
Q 1547 4250 1301 3770 
Q 1056 3291 1056 2328 
Q 1056 1369 1301 889 
Q 1547 409 2034 409 
Q 2525 409 2770 889 
Q 3016 1369 3016 2328 
Q 3016 3291 2770 3770 
Q 2525 4250 2034 4250 
z
M 2034 4750 
Q 2819 4750 3233 4129 
Q 3647 3509 3647 2328 
Q 3647 1150 3233 529 
Q 2819 -91 2034 -91 
Q 1250 -91 836 529 
Q 422 1150 422 2328 
Q 422 3509 836 4129 
Q 1250 4750 2034 4750 
z
" id="DejaVuSans-30" transform="scale(0.015625)"/>
       </defs>
       <use xlink:href="#DejaVuSans-30"/>
      </g>
     </g>
    </g>
    <g id="xtick_3">
     <g id="line2d_3">
      <g>
       <use style="stroke:#000000;stroke-width:0.8;" x="89.82" xlink:href="#mbc3c0bc29c" y="252"/>
      </g>
     </g>
     <g id="text_3">
      <!-- 1 -->
      <g transform="translate(86.63875 266.598437)scale(0.1 -0.1)">
       <use xlink:href="#DejaVuSans-31"/>
      </g>
     </g>
    </g>
    <g id="text_4">
     <!-- x/B -->
     <g transform="translate(54.565781 280.276563)scale(0.1 -0.1)">
      <defs>
       <path d="M 3513 3500 
L 2247 1797 
L 3578 0 
L 2900 0 
L 1881 1375 
L 863 0 
L 184 0 
L 1544 1831 
L 300 3500 
L 978 3500 
L 1906 2253 
L 2834 3500 
L 3513 3500 
z
" id="DejaVuSans-78" transform="scale(0.015625)"/>
       <path d="M 1625 4666 
L 2156 4666 
L 531 -594 
L 0 -594 
L 1625 4666 
z
" id="DejaVuSans-2f" transform="scale(0.015625)"/>
       <path d="M 1259 2228 
L 1259 519 
L 2272 519 
Q 2781 519 3026 730 
Q 3272 941 3272 1375 
Q 3272 1813 3026 2020 
Q 2781 2228 2272 2228 
L 1259 2228 
z
M 1259 4147 
L 1259 2741 
L 2194 2741 
Q 2656 2741 2882 2914 
Q 3109 3088 3109 3444 
Q 3109 3797 2882 3972 
Q 2656 4147 2194 4147 
L 1259 4147 
z
M 628 4666 
L 2241 4666 
Q 2963 4666 3353 4366 
Q 3744 4066 3744 3513 
Q 3744 3084 3544 2831 
Q 3344 2578 2956 2516 
Q 3422 2416 3680 2098 
Q 3938 1781 3938 1306 
Q 3938 681 3513 340 
Q 3088 0 2303 0 
L 628 0 
L 628 4666 
z
" id="DejaVuSans-42" transform="scale(0.015625)"/>
      </defs>
      <use xlink:href="#DejaVuSans-78"/>
      <use x="59.179688" xlink:href="#DejaVuSans-2f"/>
      <use x="92.871094" xlink:href="#DejaVuSans-42"/>
     </g>
    </g>
   </g>
   <g id="matplotlib.axis_2">
    <g id="ytick_1">
     <g id="line2d_4">
      <defs>
       <path d="M 0 0 
L -3.5 0 
" id="m4530ee3cb1" style="stroke:#000000;stroke-width:0.8;"/>
      </defs>
      <g>
       <use style="stroke:#000000;stroke-width:0.8;" x="18" xlink:href="#m4530ee3cb1" y="34.56"/>
      </g>
     </g>
     <g id="text_5">
      <!-- 0 -->
      <g transform="translate(4.6375 38.359219)scale(0.1 -0.1)">
       <use xlink:href="#DejaVuSans-30"/>
      </g>
     </g>
    </g>
    <g id="ytick_2">
     <g id="line2d_5">
      <g>
       <use style="stroke:#000000;stroke-width:0.8;" x="18" xlink:href="#m4530ee3cb1" y="61.74"/>
      </g>
     </g>
     <g id="text_6">
      <!-- 1 -->
      <g transform="translate(4.6375 65.539219)scale(0.1 -0.1)">
       <use xlink:href="#DejaVuSans-31"/>
      </g>
     </g>
    </g>
    <g id="ytick_3">
     <g id="line2d_6">
      <g>
       <use style="stroke:#000000;stroke-width:0.8;" x="18" xlink:href="#m4530ee3cb1" y="88.92"/>
      </g>
     </g>
     <g id="text_7">
      <!-- 2 -->
      <g transform="translate(4.6375 92.719219)scale(0.1 -0.1)">
       <defs>
        <path d="M 1228 531 
L 3431 531 
L 3431 0 
L 469 0 
L 469 531 
Q 828 903 1448 1529 
Q 2069 2156 2228 2338 
Q 2531 2678 2651 2914 
Q 2772 3150 2772 3378 
Q 2772 3750 2511 3984 
Q 2250 4219 1831 4219 
Q 1534 4219 1204 4116 
Q 875 4013 500 3803 
L 500 4441 
Q 881 4594 1212 4672 
Q 1544 4750 1819 4750 
Q 2544 4750 2975 4387 
Q 3406 4025 3406 3419 
Q 3406 3131 3298 2873 
Q 3191 2616 2906 2266 
Q 2828 2175 2409 1742 
Q 1991 1309 1228 531 
z
" id="DejaVuSans-32" transform="scale(0.015625)"/>
       </defs>
       <use xlink:href="#DejaVuSans-32"/>
      </g>
     </g>
    </g>
    <g id="ytick_4">
     <g id="line2d_7">
      <g>
       <use style="stroke:#000000;stroke-width:0.8;" x="18" xlink:href="#m4530ee3cb1" y="116.1"/>
      </g>
     </g>
     <g id="text_8">
      <!-- 3 -->
      <g transform="translate(4.6375 119.899219)scale(0.1 -0.1)">
       <defs>
        <path d="M 2597 2516 
Q 3050 2419 3304 2112 
Q 3559 1806 3559 1356 
Q 3559 666 3084 287 
Q 2609 -91 1734 -91 
Q 1441 -91 1130 -33 
Q 819 25 488 141 
L 488 750 
Q 750 597 1062 519 
Q 1375 441 1716 441 
Q 2309 441 2620 675 
Q 2931 909 2931 1356 
Q 2931 1769 2642 2001 
Q 2353 2234 1838 2234 
L 1294 2234 
L 1294 2753 
L 1863 2753 
Q 2328 2753 2575 2939 
Q 2822 3125 2822 3475 
Q 2822 3834 2567 4026 
Q 2313 4219 1838 4219 
Q 1578 4219 1281 4162 
Q 984 4106 628 3988 
L 628 4550 
Q 988 4650 1302 4700 
Q 1616 4750 1894 4750 
Q 2613 4750 3031 4423 
Q 3450 4097 3450 3541 
Q 3450 3153 3228 2886 
Q 3006 2619 2597 2516 
z
" id="DejaVuSans-33" transform="scale(0.015625)"/>
       </defs>
       <use xlink:href="#DejaVuSans-33"/>
      </g>
     </g>
    </g>
    <g id="ytick_5">
     <g id="line2d_8">
      <g>
       <use style="stroke:#000000;stroke-width:0.8;" x="18" xlink:href="#m4530ee3cb1" y="143.28"/>
      </g>
     </g>
     <g id="text_9">
      <!-- 4 -->
      <g transform="translate(4.6375 147.079219)scale(0.1 -0.1)">
       <defs>
        <path d="M 2419 4116 
L 825 1625 
L 2419 1625 
L 2419 4116 
z
M 2253 4666 
L 3047 4666 
L 3047 1625 
L 3713 1625 
L 3713 1100 
L 3047 1100 
L 3047 0 
L 2419 0 
L 2419 1100 
L 313 1100 
L 313 1709 
L 2253 4666 
z
" id="DejaVuSans-34" transform="scale(0.015625)"/>
       </defs>
       <use xlink:href="#DejaVuSans-34"/>
      </g>
     </g>
    </g>
    <g id="ytick_6">
     <g id="line2d_9">
      <g>
       <use style="stroke:#000000;stroke-width:0.8;" x="18" xlink:href="#m4530ee3cb1" y="170.46"/>
      </g>
     </g>
     <g id="text_10">
      <!-- 5 -->
      <g transform="translate(4.6375 174.259219)scale(0.1 -0.1)">
       <defs>
        <path d="M 691 4666 
L 3169 4666 
L 3169 4134 
L 1269 4134 
L 1269 2991 
Q 1406 3038 1543 3061 
Q 1681 3084 1819 3084 
Q 2600 3084 3056 2656 
Q 3513 2228 3513 1497 
Q 3513 744 3044 326 
Q 2575 -91 1722 -91 
Q 1428 -91 1123 -41 
Q 819 9 494 109 
L 494 744 
Q 775 591 1075 516 
Q 1375 441 1709 441 
Q 2250 441 2565 725 
Q 2881 1009 2881 1497 
Q 2881 1984 2565 2268 
Q 2250 2553 1709 2553 
Q 1456 2553 1204 2497 
Q 953 2441 691 2322 
L 691 4666 
z
" id="DejaVuSans-35" transform="scale(0.015625)"/>
       </defs>
       <use xlink:href="#DejaVuSans-35"/>
      </g>
     </g>
    </g>
    <g id="ytick_7">
     <g id="line2d_10">
      <g>
       <use style="stroke:#000000;stroke-width:0.8;" x="18" xlink:href="#m4530ee3cb1" y="197.64"/>
      </g>
     </g>
     <g id="text_11">
      <!-- 6 -->
      <g transform="translate(4.6375 201.439219)scale(0.1 -0.1)">
       <defs>
        <path d="M 2113 2584 
Q 1688 2584 1439 2293 
Q 1191 2003 1191 1497 
Q 1191 994 1439 701 
Q 1688 409 2113 409 
Q 2538 409 2786 701 
Q 3034 994 3034 1497 
Q 3034 2003 2786 2293 
Q 2538 2584 2113 2584 
z
M 3366 4563 
L 3366 3988 
Q 3128 4100 2886 4159 
Q 2644 4219 2406 4219 
Q 1781 4219 1451 3797 
Q 1122 3375 1075 2522 
Q 1259 2794 1537 2939 
Q 1816 3084 2150 3084 
Q 2853 3084 3261 2657 
Q 3669 2231 3669 1497 
Q 3669 778 3244 343 
Q 2819 -91 2113 -91 
Q 1303 -91 875 529 
Q 447 1150 447 2328 
Q 447 3434 972 4092 
Q 1497 4750 2381 4750 
Q 2619 4750 2861 4703 
Q 3103 4656 3366 4563 
z
" id="DejaVuSans-36" transform="scale(0.015625)"/>
       </defs>
       <use xlink:href="#DejaVuSans-36"/>
      </g>
     </g>
    </g>
    <g id="ytick_8">
     <g id="line2d_11">
      <g>
       <use style="stroke:#000000;stroke-width:0.8;" x="18" xlink:href="#m4530ee3cb1" y="224.82"/>
      </g>
     </g>
     <g id="text_12">
      <!-- 7 -->
      <g transform="translate(4.6375 228.619219)scale(0.1 -0.1)">
       <defs>
        <path d="M 525 4666 
L 3525 4666 
L 3525 4397 
L 1831 0 
L 1172 0 
L 2766 4134 
L 525 4134 
L 525 4666 
z
" id="DejaVuSans-37" transform="scale(0.015625)"/>
       </defs>
       <use xlink:href="#DejaVuSans-37"/>
      </g>
     </g>
    </g>
    <g id="ytick_9">
     <g id="line2d_12">
      <g>
       <use style="stroke:#000000;stroke-width:0.8;" x="18" xlink:href="#m4530ee3cb1" y="252"/>
      </g>
     </g>
     <g id="text_13">
      <!-- 8 -->
      <g transform="translate(4.6375 255.799219)scale(0.1 -0.1)">
       <defs>
        <path d="M 2034 2216 
Q 1584 2216 1326 1975 
Q 1069 1734 1069 1313 
Q 1069 891 1326 650 
Q 1584 409 2034 409 
Q 2484 409 2743 651 
Q 3003 894 3003 1313 
Q 3003 1734 2745 1975 
Q 2488 2216 2034 2216 
z
M 1403 2484 
Q 997 2584 770 2862 
Q 544 3141 544 3541 
Q 544 4100 942 4425 
Q 1341 4750 2034 4750 
Q 2731 4750 3128 4425 
Q 3525 4100 3525 3541 
Q 3525 3141 3298 2862 
Q 3072 2584 2669 2484 
Q 3125 2378 3379 2068 
Q 3634 1759 3634 1313 
Q 3634 634 3220 271 
Q 2806 -91 2034 -91 
Q 1263 -91 848 271 
Q 434 634 434 1313 
Q 434 1759 690 2068 
Q 947 2378 1403 2484 
z
M 1172 3481 
Q 1172 3119 1398 2916 
Q 1625 2713 2034 2713 
Q 2441 2713 2670 2916 
Q 2900 3119 2900 3481 
Q 2900 3844 2670 4047 
Q 2441 4250 2034 4250 
Q 1625 4250 1398 4047 
Q 1172 3844 1172 3481 
z
" id="DejaVuSans-38" transform="scale(0.015625)"/>
       </defs>
       <use xlink:href="#DejaVuSans-38"/>
      </g>
     </g>
    </g>
    <g id="text_14">
     <!-- z/B -->
     <g transform="translate(-1.442188 151.019062)rotate(-90)scale(0.1 -0.1)">
      <defs>
       <path d="M 353 3500 
L 3084 3500 
L 3084 2975 
L 922 459 
L 3084 459 
L 3084 0 
L 275 0 
L 275 525 
L 2438 3041 
L 353 3041 
L 353 3500 
z
" id="DejaVuSans-7a" transform="scale(0.015625)"/>
      </defs>
      <use xlink:href="#DejaVuSans-7a"/>
      <use x="52.490234" xlink:href="#DejaVuSans-2f"/>
      <use x="86.181641" xlink:href="#DejaVuSans-42"/>
     </g>
    </g>
   </g>
   <g id="patch_3">
    <path d="M 18 252 
L 18 34.56 
" style="fill:none;stroke:#000000;stroke-linecap:square;stroke-linejoin:miter;stroke-width:0.8;"/>
   </g>
   <g id="patch_4">
    <path d="M 107.28 252 
L 107.28 34.56 
" style="fill:none;stroke:#000000;stroke-linecap:square;stroke-linejoin:miter;stroke-width:0.8;"/>
   </g>
   <g id="patch_5">
    <path d="M 18 252 
L 107.28 252 
" style="fill:none;stroke:#000000;stroke-linecap:square;stroke-linejoin:miter;stroke-width:0.8;"/>
   </g>
   <g id="patch_6">
    <path d="M 18 34.56 
L 107.28 34.56 
" style="fill:none;stroke:#000000;stroke-linecap:square;stroke-linejoin:miter;stroke-width:0.8;"/>
   </g>
  </g>
  <g id="axes_2">
   <g id="patch_7">
    <path d="M 112.86 252 
L 123.732 252 
L 123.732 34.56 
L 112.86 34.56 
z
" style="fill:#ffffff;"/>
   </g>
   <g id="patch_8">
    <path clip-path="url(#pf1ebf1f989)" d="M 112.86 252 
L 112.86 230.256 
L 112.86 56.304 
L 112.86 34.56 
L 123.732 34.56 
L 123.732 56.304 
L 123.732 230.256 
L 123.732 252 
L 123.732 252 
z
" style="fill:#ffffff;stroke:#ffffff;stroke-linejoin:miter;stroke-width:0.01;"/>
   </g>
   <g id="QuadMesh_1">
    <path clip-path="url(#pf1ebf1f989)" d="M 112.86 252 
L 123.732 252 
L 123.732 230.256 
L 112.86 230.256 
L 112.86 252 
" style="fill:#124984;"/>
    <path clip-path="url(#pf1ebf1f989)" d="M 112.86 230.256 
L 123.732 230.256 
L 123.732 208.512 
L 112.86 208.512 
L 112.86 230.256 
" style="fill:#327cb7;"/>
    <path clip-path="url(#pf1ebf1f989)" d="M 112.86 208.512 
L 123.732 208.512 
L 123.732 186.768 
L 112.86 186.768 
L 112.86 208.512 
" style="fill:#6bacd1;"/>
    <path clip-path="url(#pf1ebf1f989)" d="M 112.86 186.768 
L 123.732 186.768 
L 123.732 165.024 
L 112.86 165.024 
L 112.86 186.768 
" style="fill:#b1d5e7;"/>
    <path clip-path="url(#pf1ebf1f989)" d="M 112.86 165.024 
L 123.732 165.024 
L 123.732 143.28 
L 112.86 143.28 
L 112.86 165.024 
" style="fill:#e4eef4;"/>
    <path clip-path="url(#pf1ebf1f989)" d="M 112.86 143.28 
L 123.732 143.28 
L 123.732 121.536 
L 112.86 121.536 
L 112.86 143.28 
" style="fill:#fae9df;"/>
    <path clip-path="url(#pf1ebf1f989)" d="M 112.86 121.536 
L 123.732 121.536 
L 123.732 99.792 
L 112.86 99.792 
L 112.86 121.536 
" style="fill:#f8bfa4;"/>
    <path clip-path="url(#pf1ebf1f989)" d="M 112.86 99.792 
L 123.732 99.792 
L 123.732 78.048 
L 112.86 78.048 
L 112.86 99.792 
" style="fill:#e48066;"/>
    <path clip-path="url(#pf1ebf1f989)" d="M 112.86 78.048 
L 123.732 78.048 
L 123.732 56.304 
L 112.86 56.304 
L 112.86 78.048 
" style="fill:#c43b3c;"/>
    <path clip-path="url(#pf1ebf1f989)" d="M 112.86 56.304 
L 123.732 56.304 
L 123.732 34.56 
L 112.86 34.56 
L 112.86 56.304 
" style="fill:#8a0b25;"/>
   </g>
   <g id="matplotlib.axis_3"/>
   <g id="matplotlib.axis_4">
    <g id="ytick_10">
     <g id="line2d_13">
      <defs>
       <path d="M 0 0 
L 3.5 0 
" id="m06de69b795" style="stroke:#000000;stroke-width:0.8;"/>
      </defs>
      <g>
       <use style="stroke:#000000;stroke-width:0.8;" x="123.732" xlink:href="#m06de69b795" y="252"/>
      </g>
     </g>
     <g id="text_15">
      <!-- 0.0 -->
      <g transform="translate(130.732 255.799219)scale(0.1 -0.1)">
       <defs>
        <path d="M 684 794 
L 1344 794 
L 1344 0 
L 684 0 
L 684 794 
z
" id="DejaVuSans-2e" transform="scale(0.015625)"/>
       </defs>
       <use xlink:href="#DejaVuSans-30"/>
       <use x="63.623047" xlink:href="#DejaVuSans-2e"/>
       <use x="95.410156" xlink:href="#DejaVuSans-30"/>
      </g>
     </g>
    </g>
    <g id="ytick_11">
     <g id="line2d_14">
      <g>
       <use style="stroke:#000000;stroke-width:0.8;" x="123.732" xlink:href="#m06de69b795" y="208.512"/>
      </g>
     </g>
     <g id="text_16">
      <!-- 0.2 -->
      <g transform="translate(130.732 212.311219)scale(0.1 -0.1)">
       <use xlink:href="#DejaVuSans-30"/>
       <use x="63.623047" xlink:href="#DejaVuSans-2e"/>
       <use x="95.410156" xlink:href="#DejaVuSans-32"/>
      </g>
     </g>
    </g>
    <g id="ytick_12">
     <g id="line2d_15">
      <g>
       <use style="stroke:#000000;stroke-width:0.8;" x="123.732" xlink:href="#m06de69b795" y="165.024"/>
      </g>
     </g>
     <g id="text_17">
      <!-- 0.4 -->
      <g transform="translate(130.732 168.823219)scale(0.1 -0.1)">
       <use xlink:href="#DejaVuSans-30"/>
       <use x="63.623047" xlink:href="#DejaVuSans-2e"/>
       <use x="95.410156" xlink:href="#DejaVuSans-34"/>
      </g>
     </g>
    </g>
    <g id="ytick_13">
     <g id="line2d_16">
      <g>
       <use style="stroke:#000000;stroke-width:0.8;" x="123.732" xlink:href="#m06de69b795" y="121.536"/>
      </g>
     </g>
     <g id="text_18">
      <!-- 0.6 -->
      <g transform="translate(130.732 125.335219)scale(0.1 -0.1)">
       <use xlink:href="#DejaVuSans-30"/>
       <use x="63.623047" xlink:href="#DejaVuSans-2e"/>
       <use x="95.410156" xlink:href="#DejaVuSans-36"/>
      </g>
     </g>
    </g>
    <g id="ytick_14">
     <g id="line2d_17">
      <g>
       <use style="stroke:#000000;stroke-width:0.8;" x="123.732" xlink:href="#m06de69b795" y="78.048"/>
      </g>
     </g>
     <g id="text_19">
      <!-- 0.8 -->
      <g transform="translate(130.732 81.847219)scale(0.1 -0.1)">
       <use xlink:href="#DejaVuSans-30"/>
       <use x="63.623047" xlink:href="#DejaVuSans-2e"/>
       <use x="95.410156" xlink:href="#DejaVuSans-38"/>
      </g>
     </g>
    </g>
    <g id="ytick_15">
     <g id="line2d_18">
      <g>
       <use style="stroke:#000000;stroke-width:0.8;" x="123.732" xlink:href="#m06de69b795" y="34.56"/>
      </g>
     </g>
     <g id="text_20">
      <!-- 1.0 -->
      <g transform="translate(130.732 38.359219)scale(0.1 -0.1)">
       <use xlink:href="#DejaVuSans-31"/>
       <use x="63.623047" xlink:href="#DejaVuSans-2e"/>
       <use x="95.410156" xlink:href="#DejaVuSans-30"/>
      </g>
     </g>
    </g>
    <g id="text_21">
     <!-- Normalized Stress increment $\Delta \sigma_{z}/q$ -->
     <g transform="translate(158.235125 230.93)rotate(-90)scale(0.1 -0.1)">
      <defs>
       <path d="M 628 4666 
L 1478 4666 
L 3547 763 
L 3547 4666 
L 4159 4666 
L 4159 0 
L 3309 0 
L 1241 3903 
L 1241 0 
L 628 0 
L 628 4666 
z
" id="DejaVuSans-4e" transform="scale(0.015625)"/>
       <path d="M 1959 3097 
Q 1497 3097 1228 2736 
Q 959 2375 959 1747 
Q 959 1119 1226 758 
Q 1494 397 1959 397 
Q 2419 397 2687 759 
Q 2956 1122 2956 1747 
Q 2956 2369 2687 2733 
Q 2419 3097 1959 3097 
z
M 1959 3584 
Q 2709 3584 3137 3096 
Q 3566 2609 3566 1747 
Q 3566 888 3137 398 
Q 2709 -91 1959 -91 
Q 1206 -91 779 398 
Q 353 888 353 1747 
Q 353 2609 779 3096 
Q 1206 3584 1959 3584 
z
" id="DejaVuSans-6f" transform="scale(0.015625)"/>
       <path d="M 2631 2963 
Q 2534 3019 2420 3045 
Q 2306 3072 2169 3072 
Q 1681 3072 1420 2755 
Q 1159 2438 1159 1844 
L 1159 0 
L 581 0 
L 581 3500 
L 1159 3500 
L 1159 2956 
Q 1341 3275 1631 3429 
Q 1922 3584 2338 3584 
Q 2397 3584 2469 3576 
Q 2541 3569 2628 3553 
L 2631 2963 
z
" id="DejaVuSans-72" transform="scale(0.015625)"/>
       <path d="M 3328 2828 
Q 3544 3216 3844 3400 
Q 4144 3584 4550 3584 
Q 5097 3584 5394 3201 
Q 5691 2819 5691 2113 
L 5691 0 
L 5113 0 
L 5113 2094 
Q 5113 2597 4934 2840 
Q 4756 3084 4391 3084 
Q 3944 3084 3684 2787 
Q 3425 2491 3425 1978 
L 3425 0 
L 2847 0 
L 2847 2094 
Q 2847 2600 2669 2842 
Q 2491 3084 2119 3084 
Q 1678 3084 1418 2786 
Q 1159 2488 1159 1978 
L 1159 0 
L 581 0 
L 581 3500 
L 1159 3500 
L 1159 2956 
Q 1356 3278 1631 3431 
Q 1906 3584 2284 3584 
Q 2666 3584 2933 3390 
Q 3200 3197 3328 2828 
z
" id="DejaVuSans-6d" transform="scale(0.015625)"/>
       <path d="M 2194 1759 
Q 1497 1759 1228 1600 
Q 959 1441 959 1056 
Q 959 750 1161 570 
Q 1363 391 1709 391 
Q 2188 391 2477 730 
Q 2766 1069 2766 1631 
L 2766 1759 
L 2194 1759 
z
M 3341 1997 
L 3341 0 
L 2766 0 
L 2766 531 
Q 2569 213 2275 61 
Q 1981 -91 1556 -91 
Q 1019 -91 701 211 
Q 384 513 384 1019 
Q 384 1609 779 1909 
Q 1175 2209 1959 2209 
L 2766 2209 
L 2766 2266 
Q 2766 2663 2505 2880 
Q 2244 3097 1772 3097 
Q 1472 3097 1187 3025 
Q 903 2953 641 2809 
L 641 3341 
Q 956 3463 1253 3523 
Q 1550 3584 1831 3584 
Q 2591 3584 2966 3190 
Q 3341 2797 3341 1997 
z
" id="DejaVuSans-61" transform="scale(0.015625)"/>
       <path d="M 603 4863 
L 1178 4863 
L 1178 0 
L 603 0 
L 603 4863 
z
" id="DejaVuSans-6c" transform="scale(0.015625)"/>
       <path d="M 603 3500 
L 1178 3500 
L 1178 0 
L 603 0 
L 603 3500 
z
M 603 4863 
L 1178 4863 
L 1178 4134 
L 603 4134 
L 603 4863 
z
" id="DejaVuSans-69" transform="scale(0.015625)"/>
       <path d="M 3597 1894 
L 3597 1613 
L 953 1613 
Q 991 1019 1311 708 
Q 1631 397 2203 397 
Q 2534 397 2845 478 
Q 3156 559 3463 722 
L 3463 178 
Q 3153 47 2828 -22 
Q 2503 -91 2169 -91 
Q 1331 -91 842 396 
Q 353 884 353 1716 
Q 353 2575 817 3079 
Q 1281 3584 2069 3584 
Q 2775 3584 3186 3129 
Q 3597 2675 3597 1894 
z
M 3022 2063 
Q 3016 2534 2758 2815 
Q 2500 3097 2075 3097 
Q 1594 3097 1305 2825 
Q 1016 2553 972 2059 
L 3022 2063 
z
" id="DejaVuSans-65" transform="scale(0.015625)"/>
       <path d="M 2906 2969 
L 2906 4863 
L 3481 4863 
L 3481 0 
L 2906 0 
L 2906 525 
Q 2725 213 2448 61 
Q 2172 -91 1784 -91 
Q 1150 -91 751 415 
Q 353 922 353 1747 
Q 353 2572 751 3078 
Q 1150 3584 1784 3584 
Q 2172 3584 2448 3432 
Q 2725 3281 2906 2969 
z
M 947 1747 
Q 947 1113 1208 752 
Q 1469 391 1925 391 
Q 2381 391 2643 752 
Q 2906 1113 2906 1747 
Q 2906 2381 2643 2742 
Q 2381 3103 1925 3103 
Q 1469 3103 1208 2742 
Q 947 2381 947 1747 
z
" id="DejaVuSans-64" transform="scale(0.015625)"/>
       <path id="DejaVuSans-20" transform="scale(0.015625)"/>
       <path d="M 3425 4513 
L 3425 3897 
Q 3066 4069 2747 4153 
Q 2428 4238 2131 4238 
Q 1616 4238 1336 4038 
Q 1056 3838 1056 3469 
Q 1056 3159 1242 3001 
Q 1428 2844 1947 2747 
L 2328 2669 
Q 3034 2534 3370 2195 
Q 3706 1856 3706 1288 
Q 3706 609 3251 259 
Q 2797 -91 1919 -91 
Q 1588 -91 1214 -16 
Q 841 59 441 206 
L 441 856 
Q 825 641 1194 531 
Q 1563 422 1919 422 
Q 2459 422 2753 634 
Q 3047 847 3047 1241 
Q 3047 1584 2836 1778 
Q 2625 1972 2144 2069 
L 1759 2144 
Q 1053 2284 737 2584 
Q 422 2884 422 3419 
Q 422 4038 858 4394 
Q 1294 4750 2059 4750 
Q 2388 4750 2728 4690 
Q 3069 4631 3425 4513 
z
" id="DejaVuSans-53" transform="scale(0.015625)"/>
       <path d="M 1172 4494 
L 1172 3500 
L 2356 3500 
L 2356 3053 
L 1172 3053 
L 1172 1153 
Q 1172 725 1289 603 
Q 1406 481 1766 481 
L 2356 481 
L 2356 0 
L 1766 0 
Q 1100 0 847 248 
Q 594 497 594 1153 
L 594 3053 
L 172 3053 
L 172 3500 
L 594 3500 
L 594 4494 
L 1172 4494 
z
" id="DejaVuSans-74" transform="scale(0.015625)"/>
       <path d="M 2834 3397 
L 2834 2853 
Q 2591 2978 2328 3040 
Q 2066 3103 1784 3103 
Q 1356 3103 1142 2972 
Q 928 2841 928 2578 
Q 928 2378 1081 2264 
Q 1234 2150 1697 2047 
L 1894 2003 
Q 2506 1872 2764 1633 
Q 3022 1394 3022 966 
Q 3022 478 2636 193 
Q 2250 -91 1575 -91 
Q 1294 -91 989 -36 
Q 684 19 347 128 
L 347 722 
Q 666 556 975 473 
Q 1284 391 1588 391 
Q 1994 391 2212 530 
Q 2431 669 2431 922 
Q 2431 1156 2273 1281 
Q 2116 1406 1581 1522 
L 1381 1569 
Q 847 1681 609 1914 
Q 372 2147 372 2553 
Q 372 3047 722 3315 
Q 1072 3584 1716 3584 
Q 2034 3584 2315 3537 
Q 2597 3491 2834 3397 
z
" id="DejaVuSans-73" transform="scale(0.015625)"/>
       <path d="M 3513 2113 
L 3513 0 
L 2938 0 
L 2938 2094 
Q 2938 2591 2744 2837 
Q 2550 3084 2163 3084 
Q 1697 3084 1428 2787 
Q 1159 2491 1159 1978 
L 1159 0 
L 581 0 
L 581 3500 
L 1159 3500 
L 1159 2956 
Q 1366 3272 1645 3428 
Q 1925 3584 2291 3584 
Q 2894 3584 3203 3211 
Q 3513 2838 3513 2113 
z
" id="DejaVuSans-6e" transform="scale(0.015625)"/>
       <path d="M 3122 3366 
L 3122 2828 
Q 2878 2963 2633 3030 
Q 2388 3097 2138 3097 
Q 1578 3097 1268 2742 
Q 959 2388 959 1747 
Q 959 1106 1268 751 
Q 1578 397 2138 397 
Q 2388 397 2633 464 
Q 2878 531 3122 666 
L 3122 134 
Q 2881 22 2623 -34 
Q 2366 -91 2075 -91 
Q 1284 -91 818 406 
Q 353 903 353 1747 
Q 353 2603 823 3093 
Q 1294 3584 2113 3584 
Q 2378 3584 2631 3529 
Q 2884 3475 3122 3366 
z
" id="DejaVuSans-63" transform="scale(0.015625)"/>
       <path d="M 2188 4044 
L 906 525 
L 3472 525 
L 2188 4044 
z
M 50 0 
L 1831 4666 
L 2547 4666 
L 4325 0 
L 50 0 
z
" id="DejaVuSans-394" transform="scale(0.015625)"/>
       <path d="M 2219 3044 
Q 1744 3044 1422 2700 
Q 1081 2341 969 1747 
Q 844 1119 1044 756 
Q 1241 397 1706 397 
Q 2166 397 2503 759 
Q 2844 1122 2966 1747 
Q 3075 2319 2881 2700 
Q 2700 3044 2219 3044 
z
M 2309 3503 
L 4219 3500 
L 4106 2925 
L 3463 2925 
Q 3706 2438 3575 1747 
Q 3406 888 2884 400 
Q 2359 -91 1609 -91 
Q 856 -91 525 400 
Q 194 888 363 1747 
Q 528 2609 1050 3097 
Q 1484 3503 2309 3503 
z
" id="DejaVuSans-Oblique-3c3" transform="scale(0.015625)"/>
       <path d="M 744 3500 
L 3475 3500 
L 3372 2975 
L 738 459 
L 2913 459 
L 2822 0 
L -19 0 
L 84 525 
L 2719 3041 
L 653 3041 
L 744 3500 
z
" id="DejaVuSans-Oblique-7a" transform="scale(0.015625)"/>
       <path d="M 2669 525 
Q 2438 222 2123 65 
Q 1809 -91 1428 -91 
Q 897 -91 595 267 
Q 294 625 294 1253 
Q 294 1759 480 2231 
Q 666 2703 1013 3078 
Q 1238 3322 1530 3453 
Q 1822 3584 2144 3584 
Q 2531 3584 2781 3431 
Q 3031 3278 3144 2969 
L 3244 3494 
L 3822 3494 
L 2888 -1319 
L 2309 -1319 
L 2669 525 
z
M 891 1338 
Q 891 875 1084 633 
Q 1278 391 1644 391 
Q 2188 391 2572 911 
Q 2956 1431 2956 2175 
Q 2956 2625 2757 2864 
Q 2559 3103 2188 3103 
Q 1916 3103 1684 2976 
Q 1453 2850 1281 2606 
Q 1100 2350 995 2006 
Q 891 1663 891 1338 
z
" id="DejaVuSans-Oblique-71" transform="scale(0.015625)"/>
      </defs>
      <use transform="translate(0 0.015625)" xlink:href="#DejaVuSans-4e"/>
      <use transform="translate(74.804688 0.015625)" xlink:href="#DejaVuSans-6f"/>
      <use transform="translate(135.986328 0.015625)" xlink:href="#DejaVuSans-72"/>
      <use transform="translate(177.099609 0.015625)" xlink:href="#DejaVuSans-6d"/>
      <use transform="translate(274.511719 0.015625)" xlink:href="#DejaVuSans-61"/>
      <use transform="translate(335.791016 0.015625)" xlink:href="#DejaVuSans-6c"/>
      <use transform="translate(363.574219 0.015625)" xlink:href="#DejaVuSans-69"/>
      <use transform="translate(391.357422 0.015625)" xlink:href="#DejaVuSans-7a"/>
      <use transform="translate(443.847656 0.015625)" xlink:href="#DejaVuSans-65"/>
      <use transform="translate(505.371094 0.015625)" xlink:href="#DejaVuSans-64"/>
      <use transform="translate(568.847656 0.015625)" xlink:href="#DejaVuSans-20"/>
      <use transform="translate(600.634766 0.015625)" xlink:href="#DejaVuSans-53"/>
      <use transform="translate(664.111328 0.015625)" xlink:href="#DejaVuSans-74"/>
      <use transform="translate(703.320312 0.015625)" xlink:href="#DejaVuSans-72"/>
      <use transform="translate(744.433594 0.015625)" xlink:href="#DejaVuSans-65"/>
      <use transform="translate(805.957031 0.015625)" xlink:href="#DejaVuSans-73"/>
      <use transform="translate(858.056641 0.015625)" xlink:href="#DejaVuSans-73"/>
      <use transform="translate(910.15625 0.015625)" xlink:href="#DejaVuSans-20"/>
      <use transform="translate(941.943359 0.015625)" xlink:href="#DejaVuSans-69"/>
      <use transform="translate(969.726562 0.015625)" xlink:href="#DejaVuSans-6e"/>
      <use transform="translate(1033.105469 0.015625)" xlink:href="#DejaVuSans-63"/>
      <use transform="translate(1088.085938 0.015625)" xlink:href="#DejaVuSans-72"/>
      <use transform="translate(1129.199219 0.015625)" xlink:href="#DejaVuSans-65"/>
      <use transform="translate(1190.722656 0.015625)" xlink:href="#DejaVuSans-6d"/>
      <use transform="translate(1288.134766 0.015625)" xlink:href="#DejaVuSans-65"/>
      <use transform="translate(1349.658203 0.015625)" xlink:href="#DejaVuSans-6e"/>
      <use transform="translate(1413.037109 0.015625)" xlink:href="#DejaVuSans-74"/>
      <use transform="translate(1452.246094 0.015625)" xlink:href="#DejaVuSans-20"/>
      <use transform="translate(1484.033203 0.015625)" xlink:href="#DejaVuSans-394"/>
      <use transform="translate(1552.441406 0.015625)" xlink:href="#DejaVuSans-Oblique-3c3"/>
      <use transform="translate(1615.820312 -16.390625)scale(0.7)" xlink:href="#DejaVuSans-Oblique-7a"/>
      <use transform="translate(1655.297852 0.015625)" xlink:href="#DejaVuSans-2f"/>
      <use transform="translate(1688.989258 0.015625)" xlink:href="#DejaVuSans-Oblique-71"/>
     </g>
    </g>
   </g>
   <g id="LineCollection_1"/>
   <g id="patch_9">
    <path d="M 112.86 252 
L 112.86 230.256 
L 112.86 56.304 
L 112.86 34.56 
L 123.732 34.56 
L 123.732 56.304 
L 123.732 230.256 
L 123.732 252 
z
" style="fill:none;stroke:#000000;stroke-linecap:square;stroke-linejoin:miter;stroke-width:0.8;"/>
   </g>
  </g>
 </g>
 <defs>
  <clipPath id="pb1fda75bc2">
   <rect height="217.44" width="89.28" x="18" y="34.56"/>
  </clipPath>
  <clipPath id="pf1ebf1f989">
   <rect height="217.44" width="10.872" x="112.86" y="34.56"/>
  </clipPath>
 </defs>
</svg>
